<svg width="56" height="34" viewBox="0 0 56 34" fill="none" xmlns="http://www.w3.org/2000/svg">
<path fill-rule="evenodd" clip-rule="evenodd" d="M3.64709 3.5447L6.40321 34L47.3895 30.8179L44.3354 0L3.64709 3.5447Z" fill="#FD0000"/>
<path d="M8.23438 7.57129V17.2328H13.5841C16.8684 17.2057 18.5072 14.8064 18.5072 12.4037C18.5072 10.0011 16.8684 7.5984 13.5841 7.57129H8.23438ZM9.91716 9.0217H13.5164C15.6664 9.0217 16.7431 10.7059 16.7431 12.4037C16.7431 14.088 15.6664 15.7722 13.5164 15.7722H9.91716V9.0217ZM20.3423 17.2328H22.0251V9.75369L28.7834 17.2328H30.4797V7.57129H28.7834V15.0538L22.0251 7.57129H20.3423V17.2328ZM31.9153 7.57129V8.99459H36.4524V17.2328H38.1487V8.99459H42.6858V7.57129H31.9153Z" fill="#FEFEFE" stroke="#FEFEFE" stroke-width="1.12883" stroke-miterlimit="22.9256"/>
<path fill-rule="evenodd" clip-rule="evenodd" d="M18.9789 21.1122L20.0015 29.4182L55.8784 29.5232L54.8457 18.7705L18.9789 21.1122Z" fill="#0C0AFF"/>
<path d="M27.6527 27.3276V22.5358H26.9247V24.3692C26.7148 24.0201 26.2678 23.8134 25.7362 23.8134C24.6798 23.8134 23.962 24.5352 23.962 25.5892C23.962 26.6566 24.7002 27.4191 25.7362 27.4191C26.2814 27.4191 26.7351 27.1988 26.9247 26.843V27.3276H27.6527ZM26.9179 25.5892C26.9179 26.2805 26.4608 26.7617 25.7972 26.7617C25.1471 26.7617 24.6934 26.2873 24.6934 25.5892C24.6934 24.9114 25.1268 24.4742 25.7972 24.4742C26.4744 24.4742 26.9179 24.9114 26.9179 25.5892ZM29.1425 22.8002C29.1425 23.0814 29.3693 23.3017 29.6436 23.3017C29.9246 23.3017 30.1481 23.0747 30.1481 22.8002C30.1481 22.5257 29.9314 22.302 29.6436 22.302C29.3558 22.302 29.1425 22.5257 29.1425 22.8002ZM28.3366 27.3276H31.1266V26.7346H30.1074V23.9049H28.3366V24.4946H29.3964V26.7346H28.3366V27.3276ZM35.6095 23.8575H34.6242V24.4234C34.3872 24.0405 33.9335 23.8066 33.4155 23.8066C32.613 23.8066 32.0171 24.3827 32.0171 25.0741C32.0171 25.4163 32.1627 25.6976 32.3252 25.8298C32.0509 25.9179 31.8884 26.1178 31.8884 26.355C31.8884 26.5889 32.0171 26.8362 32.2101 26.9515C31.9561 27.0497 31.7225 27.2395 31.7225 27.6224C31.7225 28.185 32.2033 28.6933 33.4087 28.6933C34.4007 28.6933 35.3251 28.3849 35.3251 27.5614C35.3251 26.8905 34.7021 26.5753 33.4155 26.6092C32.7213 26.6295 32.4132 26.5279 32.4132 26.3211C32.4132 26.233 32.5046 26.1449 32.6265 26.1178C32.806 26.233 33.0938 26.3144 33.4155 26.3144C34.1874 26.3144 34.8172 25.8636 34.8172 25.0944C34.8172 24.8572 34.7563 24.6369 34.6445 24.4505H35.6095V23.8575ZM33.4155 25.7179C32.9821 25.7179 32.701 25.4739 32.701 25.0741C32.701 24.6776 32.9821 24.4031 33.4155 24.4031C33.8455 24.4031 34.1333 24.6776 34.1333 25.0741C34.1333 25.4739 33.8455 25.7179 33.4155 25.7179ZM32.6401 27.1175C32.8128 27.1853 33.0024 27.2056 33.4155 27.1988C34.14 27.1853 34.5971 27.2395 34.5971 27.5818C34.5971 27.9037 34.1739 28.124 33.4087 28.124C32.6943 28.124 32.3049 27.9308 32.3049 27.5682C32.3049 27.3479 32.4369 27.1921 32.6401 27.1175ZM37.0147 22.8002C37.0147 23.0814 37.2381 23.3017 37.5124 23.3017C37.7934 23.3017 38.0203 23.0747 38.0203 22.8002C38.0203 22.5257 37.8002 22.302 37.5124 22.302C37.2246 22.302 37.0147 22.5257 37.0147 22.8002ZM36.2054 27.3276H38.9988V26.7346H37.9796V23.9049H36.2054V24.4946H37.2686V26.7346H36.2054V27.3276ZM42.2899 26.0839C42.2899 26.5143 42.0562 26.7752 41.7414 26.7752C41.4062 26.7752 41.2436 26.4804 41.2436 26.006V24.5013H42.4761V23.9049H41.2436V22.7527H40.5055V23.4508C40.5055 23.7524 40.4716 23.9049 40.1906 23.9049H39.5608V24.5013H40.5055V26.006C40.5055 26.8769 40.9084 27.4123 41.7007 27.4123C42.4016 27.4123 42.9197 27.0057 42.9197 26.3482L42.2899 26.0839ZM44.9749 27.4191C45.5742 27.4191 46.1363 27.1717 46.2243 26.7888C46.2548 27.0328 46.3902 27.2192 46.59 27.3141C46.766 27.4056 46.9861 27.4191 47.196 27.3344V26.721C47.108 26.7414 47.0132 26.7481 46.9387 26.6837C46.8608 26.6227 46.8067 26.4872 46.8067 26.233V25.0198C46.8067 24.2743 46.2446 23.8066 45.2661 23.8066C44.4196 23.8066 43.7763 24.1591 43.695 24.6843L44.3519 24.8775C44.4061 24.6098 44.7277 24.4234 45.2254 24.4234C45.7062 24.4234 46.0821 24.5827 46.0821 24.8436C46.0821 25.0876 45.7401 25.2062 44.8902 25.2672C44.0844 25.3282 43.5901 25.7179 43.5901 26.3482C43.5901 26.9718 44.0776 27.4191 44.9749 27.4191ZM44.9749 26.8091C44.5686 26.8091 44.3248 26.6363 44.3248 26.355C44.3248 26.0907 44.555 25.9043 44.9309 25.8772C45.5674 25.8365 45.9602 25.762 46.0888 25.6095C46.0888 26.3347 45.625 26.8091 44.9749 26.8091ZM47.3213 23.1018H48.1272V26.0331C48.1272 26.8837 48.6147 27.4123 49.4002 27.4123C50.135 27.4123 50.6056 26.965 50.6124 26.2466L49.9894 25.9856C49.9826 26.4736 49.7558 26.7752 49.4002 26.7752C49.065 26.7752 48.8619 26.494 48.8619 26.0331V22.4647H47.3213V23.1018Z" fill="#FEFEFE"/>
<path fill-rule="evenodd" clip-rule="evenodd" d="M13.4317 27.2866L13.5469 29.103L3.16233 29.7232L3.04382 28.0593L13.4317 27.2866Z" fill="#1C1B1B"/>
<path fill-rule="evenodd" clip-rule="evenodd" d="M0 23.4944L0.372448 26.7273L16.8787 24.6838L16.5062 21.8745L0 23.4944Z" fill="#FECD05"/>
</svg>
