<svg width="81" height="81" viewBox="0 0 81 81" fill="none" xmlns="http://www.w3.org/2000/svg">
<path d="M78.2666 34.7803L46.2172 2.73338C45.5912 2.10737 45.5912 1.09297 46.2172 0.469512C46.8432 -0.156504 47.855 -0.156504 48.4811 0.469512L80.5305 32.519C81.1565 33.145 81.1565 34.1568 80.5305 34.7828C79.9045 35.4088 78.8927 35.4088 78.2666 34.7828V34.7803Z" fill="#E2DCFF"/>
<path d="M73.9765 19.0533L61.9442 7.021C61.3182 6.39498 61.3182 5.38312 61.9442 4.75711C62.5702 4.13109 63.5821 4.13109 64.2081 4.75711L76.2404 16.7894C76.8664 17.4154 76.8664 18.4272 76.2404 19.0533C75.6144 19.6793 74.6025 19.6793 73.9765 19.0533Z" fill="#E2DCFF"/>
<path d="M78.2666 46.2172L34.7829 2.73338C34.1568 2.10737 34.1568 1.09297 34.7829 0.469512C35.4089 -0.156504 36.4232 -0.156504 37.0467 0.469512L80.5305 43.9533C81.1565 44.5793 81.1565 45.5912 80.5305 46.2172C79.9045 46.8432 78.8927 46.8432 78.2666 46.2172Z" fill="#E2DCFF"/>
<path d="M75.8826 55.265L25.735 5.11731C25.109 4.4913 25.109 3.47944 25.735 2.85342C26.361 2.22741 27.3729 2.22741 27.9989 2.85342L78.1466 53.0011C78.7726 53.6271 78.7726 54.639 78.1466 55.265C77.5205 55.891 76.5061 55.891 75.8826 55.265Z" fill="#E2DCFF"/>
<path d="M71.9681 62.7874L18.2126 9.03441C17.5866 8.40839 17.5866 7.39655 18.2126 6.77054C18.8386 6.14452 19.8504 6.14452 20.4764 6.77054L74.2295 60.5261C74.8555 61.1521 74.8555 62.164 74.2295 62.79C73.6034 63.416 72.5916 63.416 71.9655 62.79L71.9681 62.7874Z" fill="#E2DCFF"/>
<path d="M66.8246 69.0859L11.9141 14.1754C11.2881 13.5494 11.2881 12.5375 11.9141 11.9115C12.5401 11.2855 13.5545 11.2855 14.1779 11.9115L69.0884 66.822C69.7144 67.448 69.7144 68.4599 69.0884 69.0859C68.4624 69.7119 67.448 69.7119 66.8246 69.0859Z" fill="#E2DCFF"/>
<path d="M60.5261 74.2295L6.7731 20.4764C6.14709 19.8504 6.14709 18.8386 6.7731 18.2126C7.39912 17.5865 8.41099 17.5865 9.037 18.2126L62.79 71.9681C63.416 72.5941 63.416 73.606 62.79 74.232C62.164 74.858 61.1522 74.858 60.5261 74.232V74.2295Z" fill="#E2DCFF"/>
<path d="M53.0037 78.1439L2.85602 27.9962C2.23 27.3702 2.23 26.3583 2.85602 25.7323C3.48203 25.1063 4.49391 25.1063 5.11992 25.7323L55.2676 75.88C55.8936 76.506 55.8936 77.5179 55.2676 78.1439C54.6416 78.7699 53.6297 78.7699 53.0037 78.1439Z" fill="#E2DCFF"/>
<path d="M43.9559 80.528L0.472106 37.0442C-0.15391 36.4182 -0.15391 35.4063 0.472106 34.7803C1.09812 34.1543 2.10993 34.1543 2.73595 34.7803L46.2197 78.2641C46.8458 78.8901 46.8458 79.902 46.2197 80.528C45.5937 81.154 44.5794 81.154 43.9559 80.528Z" fill="#E2DCFF"/>
<path d="M32.5189 80.5279L0.469512 48.4785C-0.156504 47.8525 -0.156504 46.8406 0.469512 46.2146C1.09553 45.5886 2.10734 45.5886 2.73335 46.2146L34.7828 78.2641C35.4089 78.8901 35.4089 79.9019 34.7828 80.5279C34.1568 81.154 33.1449 81.154 32.5189 80.5279Z" fill="#E2DCFF"/>
<path d="M16.7919 76.2378L4.75966 64.2056C4.13364 63.5795 4.13364 62.5677 4.75966 61.9417C5.38567 61.3157 6.39748 61.3157 7.0235 61.9417L19.0558 73.974C19.6818 74.6 19.6818 75.6118 19.0558 76.2378C18.4298 76.8639 17.4179 76.8639 16.7919 76.2378Z" fill="#E2DCFF"/>
</svg>
