<svg width="878" height="769" viewBox="0 0 878 769" fill="none" xmlns="http://www.w3.org/2000/svg">
<path opacity="0.75" d="M187.984 422.958C292.887 401.02 377.163 364.839 386.136 244.137C395.109 123.436 332.287 51.4416 285.818 29.3923C239.346 7.34306 181.254 36.3427 164.048 93.4602C139.272 175.713 114.917 204.323 71.1582 229.531C27.3999 254.738 -19.548 316.778 24.9596 379.707C60.0655 429.344 123.068 436.529 187.984 422.954V422.958Z" fill="#EB2E2E"/>
<path opacity="0.75" d="M747.843 392.342C742.039 495.948 666.389 575.168 519.857 534.036C373.324 492.909 309.764 515.114 254.433 547.954C199.098 580.799 127.073 606.708 59.7898 558.16C-7.49807 509.612 -14.7228 421.358 21.8085 368.025C64.3847 305.864 145.461 295.002 204.478 290.715C262.868 286.475 317.559 266.952 331.88 142.608C346.197 18.2653 461.896 -20.1539 527.339 9.52318C609.968 46.9939 583.356 125.304 603.078 170.955C622.8 216.606 652.326 241.974 682.319 263.45C724.277 293.491 750.272 349.013 747.843 392.342Z" fill="#4B00EB"/>
<path opacity="0.75" d="M548.94 445.655C638.751 437.359 707.746 447.463 781.04 490.839C854.334 534.212 908.341 615.759 858.949 703.25C809.352 791.104 677.401 791.16 611.445 701.951C535.587 599.352 450.109 578.124 374.516 625.962C327.509 655.708 292.767 605.839 314.764 573.132C354.681 513.781 444.308 455.313 548.94 445.65V445.655Z" fill="#FF6955"/>
<path opacity="0.75" d="M525.609 102.544C507.307 175.415 536.802 240.897 570.698 272.743C603.082 303.169 646.786 326.328 704.051 325.996C750.836 325.724 770.625 279.541 746.996 250.404C709.964 204.748 699.698 178.719 695.114 135.308C689.543 82.5516 692.773 47.6699 652.973 23.2518C621.384 3.87638 546.073 21.0494 525.609 102.539V102.544Z" fill="#9664FF"/>
</svg>
