<svg width="68" height="68" viewBox="0 0 68 68" fill="none" xmlns="http://www.w3.org/2000/svg">
<rect width="68" height="68" rx="15" fill="#392B80"/>
<path d="M34.465 16.6031C34.1665 16.4829 33.8335 16.4829 33.535 16.6031L18.615 22.5994L24.625 25.0135L40.01 18.8313L34.465 16.6031ZM43.375 20.1853L27.99 26.3675L34 28.7816L49.385 22.5994L43.375 20.1853ZM51.5 24.4559L35.25 30.9872V50.8878L51.5 44.3565V24.4559ZM32.75 50.8904V30.9847L16.5 24.4559V44.359L32.75 50.8904ZM32.6075 14.2694C33.5014 13.9102 34.4986 13.9102 35.3925 14.2694L53.215 21.4338C53.4467 21.5272 53.6453 21.688 53.7852 21.8958C53.9251 22.1035 53.9999 22.3486 54 22.5994V44.359C53.9997 44.8609 53.8497 45.3513 53.5694 45.7668C53.2891 46.1823 52.8914 46.5039 52.4275 46.6902L34.465 53.9099C34.1665 54.03 33.8335 54.03 33.535 53.9099L15.575 46.6902C15.1106 46.5043 14.7124 46.1829 14.4316 45.7673C14.1509 45.3518 14.0005 44.8612 14 44.359V22.5994C14.0001 22.3486 14.0749 22.1035 14.2148 21.8958C14.3547 21.688 14.5533 21.5272 14.785 21.4338L32.6075 14.2694Z" fill="white"/>
</svg>
