<svg width="46" height="46" viewBox="0 0 46 46" fill="none" xmlns="http://www.w3.org/2000/svg">
<rect width="46" height="46" rx="23" fill="#E9E4FF"/>
<path d="M25.5621 15.5C26.783 15.7382 27.9051 16.3353 28.7847 17.2149C29.6643 18.0945 30.2614 19.2166 30.4996 20.4375M25.5621 10.5C28.0987 10.7818 30.4641 11.9177 32.2699 13.7213C34.0757 15.5248 35.2146 17.8888 35.4996 20.425M20.7833 25.3288C19.2813 23.8269 18.0953 22.1286 17.2253 20.3165C17.1505 20.1607 17.1131 20.0827 17.0843 19.9841C16.9822 19.6337 17.0556 19.2034 17.2681 18.9066C17.3279 18.8231 17.3993 18.7516 17.5422 18.6087C17.9792 18.1717 18.1977 17.9532 18.3406 17.7335C18.8793 16.9049 18.8793 15.8367 18.3406 15.008C18.1977 14.7883 17.9792 14.5698 17.5422 14.1328L17.2986 13.8892C16.6343 13.2249 16.3022 12.8928 15.9455 12.7123C15.236 12.3535 14.3982 12.3535 13.6887 12.7123C13.332 12.8928 12.9998 13.2249 12.3355 13.8892L12.1385 14.0863C11.4765 14.7483 11.1455 15.0793 10.8926 15.5293C10.6121 16.0287 10.4104 16.8043 10.4121 17.3771C10.4137 17.8933 10.5138 18.2461 10.714 18.9516C11.7903 22.7434 13.8208 26.3213 16.8058 29.3063C19.7908 32.2913 23.3688 34.3219 27.1605 35.3981C27.8661 35.5984 28.2188 35.6985 28.735 35.7C29.3078 35.7017 30.0834 35.5 30.5828 35.2195C31.0328 34.9667 31.3638 34.6357 32.0259 33.9736L32.2229 33.7766C32.8872 33.1123 33.2194 32.7801 33.3998 32.4234C33.7586 31.714 33.7586 30.8761 33.3998 30.1667C33.2194 29.81 32.8872 29.4778 32.2229 28.8135L31.9793 28.5699C31.5423 28.1329 31.3238 27.9144 31.1041 27.7715C30.2755 27.2328 29.2073 27.2328 28.3786 27.7715C28.1589 27.9144 27.9404 28.1329 27.5034 28.5699C27.3605 28.7128 27.2891 28.7842 27.2056 28.8441C26.9088 29.0566 26.4784 29.1299 26.128 29.0278C26.0294 28.999 25.9515 28.9616 25.7956 28.8868C23.9836 28.0168 22.2853 26.8308 20.7833 25.3288Z" stroke="#392B80" stroke-width="2" stroke-linecap="round" stroke-linejoin="round"/>
</svg>
