<svg width="59" height="58" viewBox="0 0 59 58" fill="none" xmlns="http://www.w3.org/2000/svg">
<circle opacity="0.12" cx="29.5" cy="29" r="29" fill="#0CC034"/>
<path d="M22.5086 29.6479C22.1341 29.3381 21.6461 29.1701 21.1425 29.1774C20.639 29.1848 20.157 29.3669 19.7934 29.6874C19.4298 30.0079 19.2114 30.443 19.182 30.9055C19.1526 31.3679 19.3144 31.8234 19.6349 32.1807L24.0651 36.4571C24.2506 36.6361 24.4735 36.7787 24.7204 36.8765C24.9673 36.9743 25.2331 37.0252 25.5019 37.0261C25.7693 37.0275 26.0343 36.9795 26.2811 36.8849C26.5279 36.7904 26.7515 36.6511 26.9387 36.4755L40.4686 23.6278C40.6521 23.4543 40.7965 23.2492 40.8938 23.0243C40.9911 22.7994 41.0392 22.5591 41.0355 22.3171C41.0318 22.0751 40.9763 21.8361 40.8722 21.6138C40.7681 21.3916 40.6174 21.1903 40.4287 21.0216C40.24 20.8529 40.017 20.72 39.7725 20.6305C39.528 20.5411 39.2667 20.4968 39.0036 20.5002C38.7404 20.5036 38.4806 20.5546 38.2389 20.6504C37.9973 20.7462 37.7784 20.8848 37.595 21.0583L25.5219 32.5478L22.5086 29.6479Z" fill="#0CC034"/>
</svg>
