<svg width="20" height="20" viewBox="0 0 20 20" fill="none" xmlns="http://www.w3.org/2000/svg">
<path d="M10.7608 5.45007C10.615 5.59593 10.5331 5.79372 10.5331 5.99996C10.5331 6.2062 10.615 6.404 10.7608 6.54985L13.3212 9.11108L5.22224 9.11652C5.01596 9.11652 4.81813 9.19846 4.67226 9.34433C4.5264 9.49019 4.44446 9.68802 4.44446 9.8943C4.44446 10.1006 4.5264 10.2984 4.67226 10.4443C4.81813 10.5901 5.01596 10.6721 5.22224 10.6721L13.322 10.6666L10.7608 13.2279C10.6865 13.2996 10.6273 13.3854 10.5865 13.4803C10.5457 13.5752 10.5243 13.6773 10.5234 13.7805C10.5225 13.8838 10.5422 13.9862 10.5813 14.0818C10.6204 14.1774 10.6781 14.2642 10.7512 14.3373C10.8242 14.4103 10.911 14.4681 11.0066 14.5072C11.1022 14.5463 11.2046 14.5659 11.3079 14.5651C11.4112 14.5642 11.5132 14.5427 11.6081 14.5019C11.703 14.4612 11.7888 14.4019 11.8606 14.3276L14.6497 11.5393C14.8664 11.3226 15.0383 11.0654 15.1556 10.7823C15.2729 10.4991 15.3332 10.1957 15.3332 9.88924C15.3332 9.58279 15.2729 9.27934 15.1556 8.99622C15.0383 8.7131 14.8664 8.45586 14.6497 8.23919L11.8606 5.45007C11.7147 5.30426 11.5169 5.22235 11.3107 5.22235C11.1044 5.22235 10.9066 5.30426 10.7608 5.45007Z" fill="#392B80"/>
</svg>
