<svg width="21" height="22" viewBox="0 0 21 22" fill="none" xmlns="http://www.w3.org/2000/svg">
<path d="M20.7436 20.0063L15.5207 14.7834C16.944 13.0427 17.6438 10.8215 17.4754 8.5793C17.3069 6.33708 16.2831 4.2454 14.6156 2.73689C12.9482 1.22838 10.7648 0.418462 8.51693 0.474665C6.2691 0.530868 4.12886 1.44889 2.5389 3.03884C0.94895 4.6288 0.0309287 6.76904 -0.0252741 9.01687C-0.0814769 11.2647 0.728439 13.4481 2.23695 15.1156C3.74546 16.783 5.83714 17.8068 8.07936 17.9753C10.3216 18.1438 12.5428 17.444 14.2835 16.0207L19.5064 21.2436C19.6714 21.4029 19.8924 21.4911 20.1218 21.4891C20.3513 21.4872 20.5707 21.3951 20.733 21.2329C20.8952 21.0707 20.9872 20.8512 20.9892 20.6218C20.9912 20.3924 20.903 20.1713 20.7436 20.0063ZM8.74999 16.2499C7.36552 16.2499 6.01214 15.8394 4.861 15.0702C3.70986 14.301 2.81265 13.2078 2.28284 11.9287C1.75302 10.6496 1.6144 9.24217 1.88449 7.8843C2.15459 6.52643 2.82128 5.27915 3.80024 4.30018C4.77921 3.32122 6.02649 2.65453 7.38436 2.38443C8.74223 2.11434 10.1497 2.25296 11.4288 2.78277C12.7079 3.31259 13.8011 4.20979 14.5703 5.36094C15.3394 6.51208 15.75 7.86546 15.75 9.24993C15.7479 11.1058 15.0097 12.8851 13.6974 14.1974C12.3851 15.5097 10.6059 16.2478 8.74999 16.2499Z" fill="#392B80"/>
</svg>
