<svg width="46" height="46" viewBox="0 0 46 46" fill="none" xmlns="http://www.w3.org/2000/svg">
<rect width="46" height="46" rx="23" fill="#E9E4FF"/>
<path d="M14.25 25.8579C11.9358 26.8788 10.5 28.3015 10.5 29.875C10.5 32.9816 16.0964 35.5 23 35.5C29.9036 35.5 35.5 32.9816 35.5 29.875C35.5 28.3015 34.0642 26.8788 31.75 25.8579M30.5 18C30.5 23.0796 24.875 25.5 23 29.25C21.125 25.5 15.5 23.0796 15.5 18C15.5 13.8579 18.8579 10.5 23 10.5C27.1421 10.5 30.5 13.8579 30.5 18ZM24.25 18C24.25 18.6904 23.6904 19.25 23 19.25C22.3096 19.25 21.75 18.6904 21.75 18C21.75 17.3096 22.3096 16.75 23 16.75C23.6904 16.75 24.25 17.3096 24.25 18Z" stroke="#392B80" stroke-width="2" stroke-linecap="round" stroke-linejoin="round"/>
</svg>
