<svg width="418" height="369" viewBox="0 0 418 369" fill="none" xmlns="http://www.w3.org/2000/svg">
<path d="M279.824 332.614C279.068 331.857 279.068 330.632 279.824 329.875L375.328 234.323C376.085 233.566 377.31 233.566 378.067 234.323C378.823 235.079 378.823 236.305 378.067 237.061L282.563 332.614C281.806 333.37 280.581 333.37 279.824 332.614Z" fill="#F3E5F3"/>
<path d="M253.578 345.17C252.822 344.413 252.822 343.188 253.578 342.431L392.207 203.73C392.963 202.973 394.189 202.973 394.945 203.73C395.702 204.486 395.702 205.712 394.945 206.468L256.317 345.17C255.56 345.927 254.335 345.927 253.578 345.17Z" fill="#F3E5F3"/>
<path d="M231.691 353.367C230.935 352.611 230.935 351.385 231.691 350.629L400.459 181.775C401.216 181.019 402.441 181.019 403.198 181.775C403.954 182.532 403.954 183.757 403.198 184.514L234.43 353.367C233.673 354.124 232.448 354.124 231.691 353.367Z" fill="#F3E5F3"/>
<path d="M211.808 359.561C211.051 358.805 211.051 357.579 211.808 356.823L405.89 162.639C406.647 161.882 407.872 161.882 408.629 162.639C409.385 163.396 409.385 164.621 408.629 165.378L214.546 359.561C213.79 360.318 212.564 360.318 211.808 359.561Z" fill="#F3E5F3"/>
<path d="M193.244 364.432C192.488 363.675 192.488 362.45 193.244 361.693L409.658 145.166C410.415 144.409 411.64 144.409 412.397 145.166C413.153 145.923 413.153 147.148 412.397 147.905L195.983 364.432C195.226 365.189 194.001 365.189 193.244 364.432Z" fill="#F3E5F3"/>
<path d="M176.73 367.253C175.973 366.497 175.973 365.271 176.73 364.515L412.176 128.946C412.933 128.19 414.158 128.19 414.915 128.946C415.671 129.703 415.671 130.928 414.915 131.685L179.469 367.253C178.712 368.01 177.487 368.01 176.73 367.253Z" fill="#F3E5F3"/>
<path d="M161.855 368.436C161.098 367.679 161.098 366.454 161.855 365.697L413.668 113.752C414.424 112.996 415.65 112.996 416.406 113.752C417.163 114.509 417.163 115.734 416.406 116.491L164.593 368.432C163.837 369.189 162.611 369.189 161.855 368.432V368.436Z" fill="#F3E5F3"/>
<path d="M148.193 368.387C147.436 367.63 147.436 366.405 148.193 365.648L414.25 99.4498C415.006 98.6932 416.232 98.6932 416.988 99.4498C417.745 100.206 417.745 101.432 416.988 102.188L150.931 368.387C150.175 369.143 148.949 369.143 148.193 368.387Z" fill="#F3E5F3"/>
<path d="M135.486 367.4C134.73 366.644 134.73 365.418 135.486 364.662L413.962 86.042C414.719 85.2853 415.944 85.2853 416.701 86.042C417.457 86.7986 417.457 88.0239 416.701 88.7805L138.228 367.4C137.471 368.157 136.246 368.157 135.489 367.4H135.486Z" fill="#F3E5F3"/>
<path d="M123.601 365.587C122.844 364.83 122.844 363.605 123.601 362.848L412.844 73.4549C413.601 72.6983 414.826 72.6983 415.583 73.4549C416.339 74.2115 416.339 75.4369 415.583 76.1935L126.339 365.587C125.583 366.343 124.357 366.343 123.601 365.587Z" fill="#F3E5F3"/>
<path d="M112.386 363.106C111.629 362.349 111.629 361.124 112.386 360.367L410.886 61.7104C411.643 60.9538 412.868 60.9538 413.625 61.7104C414.382 62.467 414.382 63.6924 413.625 64.449L115.125 363.109C114.368 363.865 113.143 363.865 112.386 363.109V363.106Z" fill="#F3E5F3"/>
<path d="M101.772 360.024C101.015 359.267 101.015 358.042 101.772 357.285L408.071 50.8297C408.828 50.0731 410.053 50.0731 410.81 50.8297C411.567 51.5863 411.567 52.8116 410.81 53.5682L104.514 360.027C103.757 360.784 102.532 360.784 101.775 360.027L101.772 360.024Z" fill="#F3E5F3"/>
<path d="M91.6998 356.4C90.9432 355.643 90.9432 354.418 91.6998 353.661L404.34 40.8586C405.097 40.102 406.322 40.102 407.079 40.8586C407.835 41.6152 407.835 42.8405 407.079 43.5972L94.4383 356.403C93.6817 357.16 92.4564 357.16 91.6998 356.403V356.4Z" fill="#F3E5F3"/>
<path d="M82.1332 352.274C81.3766 351.517 81.3766 350.292 82.1332 349.535L399.632 31.8648C400.389 31.1082 401.614 31.1082 402.371 31.8648C403.127 32.6215 403.127 33.8468 402.371 34.6034L84.8687 352.274C84.1121 353.03 82.8868 353.03 82.1302 352.274H82.1332Z" fill="#F3E5F3"/>
<path d="M73.0384 347.67C72.2817 346.913 72.2817 345.688 73.0384 344.931L393.842 23.9586C394.599 23.202 395.824 23.202 396.581 23.9586C397.338 24.7152 397.338 25.9405 396.581 26.6971L75.7769 347.67C75.0203 348.426 73.795 348.426 73.0384 347.67Z" fill="#F3E5F3"/>
<path d="M64.4092 342.603C63.6525 341.846 63.6525 340.621 64.4092 339.865L386.965 17.1368C387.722 16.3802 388.947 16.3802 389.704 17.1368C390.461 17.8934 390.461 19.1187 389.704 19.8754L67.1447 342.603C66.388 343.36 65.1627 343.36 64.4061 342.603H64.4092Z" fill="#F3E5F3"/>
<path d="M56.2362 337.071C55.4796 336.314 55.4796 335.089 56.2362 334.332L379.227 11.1694C379.984 10.4128 381.209 10.4128 381.966 11.1694C382.723 11.926 382.723 13.1513 381.966 13.908L58.9717 337.071C58.2151 337.827 56.9898 337.827 56.2332 337.071H56.2362Z" fill="#F3E5F3"/>
<path d="M48.5261 331.073C47.7695 330.316 47.7695 329.091 48.5261 328.334L370.454 6.23764C371.208 5.48101 372.436 5.48101 373.193 6.23764C373.95 6.99426 373.95 8.21957 373.193 8.9762L51.2647 331.073C50.508 331.83 49.2827 331.83 48.5261 331.073Z" fill="#F3E5F3"/>
<path d="M41.3121 324.591C40.5555 323.834 40.5555 322.609 41.3121 321.852L360.419 2.57394C361.176 1.81731 362.401 1.81731 363.158 2.57394C363.914 3.33057 363.914 4.55588 363.158 5.3125L44.0476 324.591C43.291 325.348 42.0657 325.348 41.309 324.591H41.3121Z" fill="#F3E5F3"/>
<path d="M34.6311 317.576C33.8744 316.819 33.8744 315.594 34.6311 314.838L348.733 0.567471C349.489 -0.189157 350.715 -0.189157 351.471 0.567471C352.228 1.3241 352.228 2.54941 351.471 3.30603L37.3697 317.573C36.613 318.33 35.3877 318.33 34.6311 317.573V317.576Z" fill="#F3E5F3"/>
<path d="M28.5566 309.948C27.8 309.192 27.8 307.967 28.5566 307.21L334.758 0.849209C335.515 0.0925813 336.74 0.0925813 337.497 0.849209C338.253 1.60584 338.253 2.83114 337.497 3.58776L31.2952 309.948C30.5386 310.705 29.3132 310.705 28.5566 309.948Z" fill="#F3E5F3"/>
<path d="M22.9692 301.84C22.2126 301.084 22.2126 299.858 22.9692 299.102L317.055 4.86227C317.812 4.10564 319.037 4.10564 319.794 4.86227C320.551 5.6189 320.551 6.84421 319.794 7.60083L25.7078 301.84C24.9512 302.597 23.7259 302.597 22.9692 301.84Z" fill="#F3E5F3"/>
<path d="M17.8565 293.254C17.0999 292.497 17.0999 291.272 17.8565 290.515L290.674 17.5533C291.431 16.7967 292.656 16.7967 293.413 17.5533C294.17 18.3099 294.17 19.5352 293.413 20.2919L20.5951 293.251C19.8385 294.007 18.6132 294.007 17.8565 293.251V293.254Z" fill="#F3E5F3"/>
<path d="M13.2464 284.165C12.4898 283.408 12.4898 282.183 13.2464 281.426L224.119 70.4437L224.404 70.2966L225.114 71.6812C225.215 71.8742 225.344 72.0488 225.503 72.1989L226.704 73.3446L226.64 73.3936H226.643L15.988 284.165C15.2314 284.922 14.0061 284.922 13.2495 284.165H13.2464Z" fill="#F3E5F3"/>
<path d="M9.18756 274.525C8.43093 273.768 8.43093 272.543 9.18756 271.786L191.446 89.4329C192.203 88.6763 193.428 88.6763 194.185 89.4329C194.941 90.1896 194.941 91.4149 194.185 92.1715L11.9261 274.525C11.1695 275.282 9.94419 275.282 9.18756 274.525Z" fill="#F3E5F3"/>
<path d="M5.74133 264.272C4.9847 263.515 4.9847 262.29 5.74133 261.534L168.591 98.5982C169.348 97.8416 170.573 97.8416 171.329 98.5982C172.086 99.3549 172.086 100.58 171.329 101.337L8.47988 264.272C7.72325 265.029 6.49796 265.029 5.74133 264.272Z" fill="#F3E5F3"/>
<path d="M3.01809 253.275C2.26147 252.518 2.26147 251.293 3.01809 250.536L148.949 104.529C149.706 103.772 150.931 103.772 151.688 104.529C152.444 105.285 152.444 106.511 151.688 107.267L5.75971 253.272C5.00308 254.029 3.77779 254.029 3.02116 253.272L3.01809 253.275Z" fill="#F3E5F3"/>
<path d="M1.20773 241.383C0.451102 240.627 0.451102 239.402 1.20773 238.645L131.136 108.646C131.893 107.889 133.118 107.889 133.875 108.646C134.632 109.402 134.632 110.628 133.875 111.384L3.94325 241.383C3.18662 242.14 1.96129 242.14 1.20466 241.383H1.20773Z" fill="#F3E5F3"/>
<path d="M0.567471 228.325C-0.189157 227.568 -0.189157 226.343 0.567471 225.586L113.268 112.824C114.025 112.067 115.25 112.067 116.007 112.824C116.763 113.581 116.763 114.806 116.007 115.563L3.30602 228.325C2.54939 229.081 1.3241 229.081 0.567471 228.325Z" fill="#F3E5F3"/>
<path d="M1.66415 213.526C0.907523 212.769 0.907523 211.544 1.66415 210.787L94.1565 118.249C94.9132 117.492 96.1385 117.492 96.8951 118.249C97.6517 119.006 97.6517 120.231 96.8951 120.988L4.4058 213.526C3.64917 214.283 2.42384 214.283 1.66722 213.526H1.66415Z" fill="#F3E5F3"/>
<path d="M5.85778 195.63C5.10116 194.874 5.10116 193.648 5.85778 192.892L72.6463 126.07C73.4029 125.313 74.6282 125.313 75.3848 126.07C76.1414 126.826 76.1414 128.052 75.3848 128.808L8.59633 195.63C7.8397 196.387 6.61441 196.387 5.85778 195.63Z" fill="#F3E5F3"/>
<path d="M19.3761 168.404C18.6194 167.647 18.6194 166.422 19.3761 165.666L42.8928 142.134C43.6494 141.377 44.8747 141.377 45.6313 142.134C46.388 142.89 46.388 144.115 45.6313 144.872L22.1146 168.401C21.358 169.158 20.1327 169.158 19.3761 168.401V168.404Z" fill="#F3E5F3"/>
</svg>
