<svg width="47" height="48" viewBox="0 0 47 48" fill="none" xmlns="http://www.w3.org/2000/svg">
<rect y="0.5" width="47" height="47" rx="8" fill="#473BF0" fill-opacity="0.1"/>
<g clip-path="url(#clip0_328_472)">
<path d="M16.9376 13.6579C16.8417 13.5345 16.7206 13.4329 16.5824 13.3599C16.4442 13.2869 16.292 13.2441 16.136 13.2344C15.98 13.2247 15.8237 13.2484 15.6776 13.3037C15.5314 13.3591 15.3987 13.4449 15.2882 13.5555L13.608 15.2374C12.8231 16.0239 12.5338 17.137 12.8767 18.1136C14.2998 22.1559 16.6147 25.826 19.6497 28.8516C22.6754 31.8866 26.3454 34.2015 30.3877 35.6246C31.3644 35.9675 32.4775 35.6782 33.264 34.8934L34.9442 33.2131C35.0548 33.1027 35.1406 32.9699 35.196 32.8238C35.2514 32.6776 35.275 32.5213 35.2653 32.3653C35.2556 32.2093 35.2128 32.0572 35.1398 31.919C35.0668 31.7808 34.9653 31.6597 34.8419 31.5637L31.093 28.6485C30.9611 28.5462 30.8078 28.4753 30.6445 28.4409C30.4813 28.4066 30.3123 28.4098 30.1505 28.4502L26.5917 29.3391C26.1167 29.4578 25.619 29.4515 25.1472 29.3208C24.6753 29.1901 24.2453 28.9395 23.8991 28.5932L19.9081 24.6006C19.5616 24.2546 19.3106 23.8247 19.1796 23.3528C19.0486 22.8809 19.0421 22.3832 19.1606 21.908L20.0511 18.3492C20.0916 18.1874 20.0948 18.0185 20.0604 17.8552C20.0261 17.6919 19.9551 17.5386 19.8529 17.4067L16.9376 13.6579ZM14.0613 12.3302C14.3457 12.0458 14.6873 11.8251 15.0636 11.6828C15.4398 11.5405 15.8419 11.4798 16.2434 11.5049C16.6448 11.5299 17.0363 11.6401 17.3919 11.8281C17.7475 12.016 18.0591 12.2775 18.3059 12.5951L21.2211 16.3424C21.7557 17.0297 21.9442 17.9251 21.733 18.7701L20.8441 22.3289C20.7981 22.5132 20.8006 22.7063 20.8513 22.8893C20.902 23.0724 20.9991 23.2393 21.1334 23.3737L25.126 27.3664C25.2606 27.5008 25.4277 27.5982 25.6111 27.6489C25.7945 27.6995 25.9879 27.7019 26.1725 27.6556L29.7296 26.7667C30.1466 26.6625 30.5818 26.6544 31.0024 26.7431C31.423 26.8317 31.8179 27.0149 32.1574 27.2786L35.9046 30.1939C37.2517 31.242 37.3752 33.2326 36.1695 34.4367L34.4892 36.117C33.2867 37.3195 31.4895 37.8476 29.8141 37.2577C25.526 35.749 21.6327 33.2941 18.4229 30.0752C15.2042 26.8659 12.7493 22.9731 11.2403 18.6856C10.6521 17.0119 11.1802 15.213 12.3827 14.0105L14.063 12.3302H14.0613ZM28.8749 12.3124C28.8749 12.0969 28.9605 11.8902 29.1128 11.7378C29.2652 11.5855 29.4719 11.4999 29.6874 11.4999H36.1874C36.4028 11.4999 36.6095 11.5855 36.7619 11.7378C36.9142 11.8902 36.9999 12.0969 36.9999 12.3124V18.8124C36.9999 19.0279 36.9142 19.2345 36.7619 19.3869C36.6095 19.5393 36.4028 19.6249 36.1874 19.6249C35.9719 19.6249 35.7652 19.5393 35.6128 19.3869C35.4605 19.2345 35.3749 19.0279 35.3749 18.8124V14.2737L28.6376 21.0126C28.485 21.1652 28.2781 21.2509 28.0624 21.2509C27.8466 21.2509 27.6397 21.1652 27.4871 21.0126C27.3345 20.8601 27.2488 20.6531 27.2488 20.4374C27.2488 20.2216 27.3345 20.0147 27.4871 19.8621L34.226 13.1249H29.6874C29.4719 13.1249 29.2652 13.0393 29.1128 12.8869C28.9605 12.7345 28.8749 12.5279 28.8749 12.3124Z" fill="#473BF0"/>
</g>
<defs>
<clipPath id="clip0_328_472">
<rect width="26" height="26" fill="white" transform="translate(11 11.5)"/>
</clipPath>
</defs>
</svg>
