<svg width="68" height="68" viewBox="0 0 68 68" fill="none" xmlns="http://www.w3.org/2000/svg">
<rect width="68" height="68" rx="15" fill="#392B80"/>
<g clip-path="url(#clip0_328_405)">
<path d="M23.1348 17.3199C22.9872 17.13 22.8009 16.9738 22.5883 16.8614C22.3757 16.7491 22.1416 16.6833 21.9016 16.6684C21.6616 16.6535 21.4211 16.6899 21.1963 16.775C20.9714 16.8602 20.7672 16.9922 20.5973 17.1624L18.0123 19.7499C16.8048 20.9599 16.3598 22.6724 16.8873 24.1749C19.0766 30.3939 22.638 36.0401 27.3073 40.6949C31.9621 45.3641 37.6083 48.9255 43.8273 51.1149C45.3298 51.6424 47.0423 51.1974 48.2523 49.9899L50.8373 47.4049C51.0074 47.235 51.1395 47.0308 51.2246 46.8059C51.3098 46.581 51.3461 46.3406 51.3312 46.1006C51.3163 45.8606 51.2505 45.6265 51.1382 45.4139C51.0259 45.2013 50.8696 45.015 50.6798 44.8674L44.9123 40.3824C44.7094 40.2251 44.4735 40.1159 44.2224 40.063C43.9712 40.0102 43.7113 40.0151 43.4623 40.0774L37.9873 41.4449C37.2565 41.6275 36.4908 41.6178 35.7649 41.4168C35.0389 41.2157 34.3774 40.83 33.8448 40.2974L27.7048 34.1549C27.1717 33.6225 26.7856 32.9611 26.5841 32.2351C26.3825 31.5092 26.3724 30.7434 26.5548 30.0124L27.9248 24.5374C27.987 24.2884 27.9919 24.0285 27.9391 23.7773C27.8863 23.5261 27.7771 23.2902 27.6198 23.0874L23.1348 17.3199ZM18.7098 15.2774C19.1473 14.8398 19.6728 14.5002 20.2516 14.2813C20.8304 14.0624 21.4491 13.9691 22.0667 14.0076C22.6843 14.0462 23.2867 14.2156 23.8337 14.5048C24.3808 14.794 24.8601 15.1963 25.2398 15.6849L29.7248 21.4499C30.5473 22.5074 30.8373 23.8849 30.5123 25.1849L29.1448 30.6599C29.0741 30.9435 29.0779 31.2405 29.1559 31.5222C29.2338 31.8038 29.3833 32.0605 29.5898 32.2674L35.7323 38.4099C35.9394 38.6168 36.1965 38.7665 36.4787 38.8445C36.7608 38.9225 37.0583 38.926 37.3423 38.8549L42.8148 37.4874C43.4563 37.327 44.1259 37.3145 44.773 37.4509C45.42 37.5874 46.0276 37.8691 46.5498 38.2749L52.3148 42.7599C54.3873 44.3724 54.5773 47.4349 52.7223 49.2874L50.1373 51.8724C48.2873 53.7224 45.5223 54.5349 42.9448 53.6274C36.3477 51.3062 30.358 47.5295 25.4198 42.5774C20.468 37.6399 16.6913 31.651 14.3698 25.0549C13.4648 22.4799 14.2773 19.7124 16.1273 17.8624L18.7123 15.2774H18.7098ZM41.4998 15.2499C41.4998 14.9184 41.6315 14.6004 41.8659 14.366C42.1003 14.1316 42.4183 13.9999 42.7498 13.9999H52.7498C53.0813 13.9999 53.3992 14.1316 53.6337 14.366C53.8681 14.6004 53.9998 14.9184 53.9998 15.2499V25.2499C53.9998 25.5814 53.8681 25.8993 53.6337 26.1338C53.3992 26.3682 53.0813 26.4999 52.7498 26.4999C52.4183 26.4999 52.1003 26.3682 51.8659 26.1338C51.6315 25.8993 51.4998 25.5814 51.4998 25.2499V18.2674L41.1348 28.6349C40.9001 28.8696 40.5817 29.0015 40.2498 29.0015C39.9178 29.0015 39.5995 28.8696 39.3648 28.6349C39.1301 28.4002 38.9982 28.0818 38.9982 27.7499C38.9982 27.4179 39.1301 27.0996 39.3648 26.8649L49.7323 16.4999H42.7498C42.4183 16.4999 42.1003 16.3682 41.8659 16.1338C41.6315 15.8993 41.4998 15.5814 41.4998 15.2499Z" fill="white"/>
</g>
<defs>
<clipPath id="clip0_328_405">
<rect width="40" height="40" fill="white" transform="translate(14 14)"/>
</clipPath>
</defs>
</svg>
