<svg xmlns="http://www.w3.org/2000/svg" xmlns:xlink="http://www.w3.org/1999/xlink"><defs><style>
    .sprite-symbol-usage {display: none;}
    .sprite-symbol-usage:target {display: inline;}
  </style><symbol viewBox="0 0 975 415" fill="none" id="404">
<path d="M312.973 331.077H268.503V409.125H160.682V331.077H0V251.35L167.814 5.87451H268.503V249.671H312.973V331.077ZM160.682 249.671V202.674C160.682 193.862 161.102 182.113 161.521 167.007C162.36 151.901 162.78 144.348 163.199 143.508H160.262C153.969 157.775 146.837 170.783 138.866 183.372L94.3954 249.671H160.682Z" fill="white" />
<path d="M632.659 208.129C632.659 279.464 620.493 331.916 596.999 365.066C573.085 398.215 536.586 415 487.081 415C438.834 415 402.754 397.796 378.002 362.968C353.668 328.14 341.502 276.527 341.502 208.129C341.502 136.375 353.249 83.9231 377.582 50.3539C401.495 16.7846 437.995 0 487.5 0C535.327 0 571.827 17.6239 596.16 52.452C620.493 87.2801 632.659 138.893 632.659 208.129ZM449.742 208.129C449.742 253.868 452.679 285.339 458.133 302.123C464.006 319.328 473.236 327.72 486.661 327.72C500.086 327.72 509.736 318.908 515.609 301.284C521.063 283.66 524 252.609 524 208.129C524 163.231 521.063 132.179 515.609 114.135C509.736 96.092 500.506 87.2801 487.081 87.2801C473.656 87.2801 464.006 96.092 458.552 113.296C452.679 130.501 449.742 161.972 449.742 208.129Z" fill="white" />
<path d="M975.001 331.077H930.53V409.125H822.709V331.077H662.027V251.35L829.841 5.87451H930.53V249.671H975.001V331.077ZM823.129 249.671V202.674C823.129 193.862 823.548 182.113 823.968 167.007C824.807 151.901 825.227 144.348 825.646 143.508H822.709C816.416 157.775 809.284 170.783 801.313 183.372L756.423 250.091H823.129V249.671Z" fill="white" />
<g clip-path="url(#404_clip0_397_831)">
<path d="M702.941 190.962C702.941 190.962 700.534 114.88 627.425 111.134C544.689 106.888 549.834 193.126 549.834 193.126C549.834 193.126 572.738 181.639 621.367 183.054C677.049 184.469 702.941 190.962 702.941 190.962Z" fill="white" />
<path d="M687.339 41.4606C683.605 25.5616 664.768 40.7947 632.155 31.5549C605.019 23.8135 596.139 3.41944 587.011 10.4949C577.883 17.5704 590.58 40.7947 629.582 54.0301C658.627 63.9358 691.655 60.0234 687.339 41.4606Z" fill="#282828" />
<path d="M290.258 46.705C292.582 30.5562 312.747 44.1245 344.364 31.9713C370.753 21.8991 377.807 0.839078 387.516 7.08216C397.225 13.4085 386.52 37.6317 348.845 54.1967C320.796 66.5996 287.52 65.5175 290.258 46.705Z" fill="#282828" />
<path d="M273.08 188.132C273.08 188.132 276.565 112.049 349.592 109.302C432.327 106.139 426.103 192.294 426.103 192.294C426.103 192.294 403.366 180.557 354.737 181.223C299.054 181.972 273.08 188.132 273.08 188.132Z" fill="white" />
<path d="M631.822 110.468C673.314 125.618 675.555 173.481 675.389 185.884C692.899 189.131 701.28 193.459 701.28 193.459C701.28 193.459 707.172 112.299 631.822 110.468Z" fill="#EFEFEF" />
<path d="M356.562 109.219C398.055 124.369 400.295 172.233 400.129 184.635C417.639 187.882 426.02 192.21 426.02 192.21C426.02 192.21 431.995 111.05 356.562 109.219Z" fill="#EFEFEF" />
<path d="M389.675 173.897C389.675 151.672 371.75 133.692 349.593 133.692C327.436 133.692 309.512 151.672 309.512 173.897C309.512 177.144 309.927 180.39 310.674 183.387C322.457 182.471 337.063 181.639 354.738 181.389C367.933 181.223 379.136 181.972 388.596 183.054C389.343 180.224 389.675 177.144 389.675 173.897Z" fill="#282828" />
<path d="M340.465 171.567C347.615 171.567 353.411 165.753 353.411 158.581C353.411 151.409 347.615 145.595 340.465 145.595C333.315 145.595 327.52 151.409 327.52 158.581C327.52 165.753 333.315 171.567 340.465 171.567Z" fill="white" />
<path d="M586.514 175.229C586.846 153.004 605.019 135.273 627.093 135.606C649.25 135.939 666.925 154.169 666.594 176.311C666.511 179.558 666.096 182.804 665.349 185.801C653.565 184.719 638.96 183.72 621.367 183.22C608.173 182.887 596.97 183.47 587.509 184.469C586.846 181.472 586.514 178.392 586.514 175.229Z" fill="#282828" />
<path d="M648.871 160.698C648.966 153.527 643.248 147.636 636.099 147.541C628.95 147.446 623.078 153.182 622.983 160.353C622.888 167.524 628.606 173.414 635.755 173.51C642.904 173.605 648.776 167.869 648.871 160.698Z" fill="white" />
<path d="M619.54 291.85C618.212 291.85 616.884 291.184 616.138 290.019C616.055 289.935 607.922 278.115 590.081 266.545C573.733 255.89 545.518 243.237 504.358 243.237C504.192 243.237 504.026 243.237 503.86 243.237C440.875 243.404 393.988 289.02 393.49 289.519C391.831 291.101 389.258 291.101 387.599 289.519C386.022 287.854 386.022 285.274 387.599 283.609C388.096 283.11 400.129 271.289 420.46 259.303C439.298 248.232 469.006 234.996 503.777 234.913C503.943 234.913 504.109 234.913 504.358 234.913C547.841 234.913 577.633 248.481 594.977 259.802C614.063 272.288 622.61 284.858 623.025 285.357C624.27 287.272 623.855 289.852 621.947 291.101C621.117 291.6 620.287 291.85 619.54 291.85Z" fill="#282828" />
<path d="M376.148 269.791C369.592 280.363 368.43 294.014 373.16 305.502C373.575 306.501 374.571 307.25 375.733 306.917C376.729 306.667 377.642 305.418 377.144 304.336C372.828 293.765 373.741 281.528 379.716 271.872C381.127 269.625 377.559 267.46 376.148 269.791Z" fill="#282828" />
<path d="M624.271 273.038C632.155 280.696 635.142 292.766 631.906 303.254C631.076 305.835 635.142 306.917 635.889 304.336C639.623 292.433 636.138 278.781 627.176 270.041C625.267 268.21 622.28 271.206 624.271 273.038Z" fill="#282828" />
<path d="M411.83 169.985C410.751 168.986 409.673 168.07 408.345 167.571C406.27 166.822 404.03 167.321 401.872 166.988C397.059 166.073 394.238 161.078 390.005 158.498C383.865 154.752 375.483 156.999 370.421 162.16C367.351 165.323 364.529 169.819 360.131 169.902C358.056 169.985 356.065 168.986 353.99 168.653C348.679 167.737 343.7 171.067 338.472 172.316C333.493 173.564 328.016 172.898 323.452 170.568C317.892 167.654 312.581 162.244 306.606 163.992C300.88 165.74 298.723 173.231 293.08 175.229C289.096 176.728 284.283 174.896 280.466 176.728C276.566 178.642 275.155 183.387 274.242 187.715L349.675 181.389L423.199 189.463C423.282 181.639 417.473 175.229 411.83 169.985Z" fill="#7ECDEC" />
<path d="M426.104 195.291C425.606 195.291 425.108 195.207 424.693 194.958C424.444 194.874 401.873 183.554 354.821 184.219C300.217 184.969 274.077 190.962 273.745 191.045C272.832 191.295 271.836 191.045 271.089 190.379C270.342 189.797 269.927 188.798 270.01 187.882C270.01 187.05 271.006 167.987 281.213 148.259C290.674 129.863 310.258 107.638 349.51 106.139C374.239 105.224 393.823 111.966 407.516 126.284C431.83 151.506 429.258 190.796 429.175 192.46C429.092 193.459 428.511 194.375 427.598 194.958C427.183 195.207 426.602 195.291 426.104 195.291ZM358.887 178.06C393.74 178.06 414.652 184.386 423.117 187.632C423.034 176.977 420.959 149.092 403.034 130.529C390.504 117.543 372.579 111.467 349.675 112.299C320.548 113.381 299.304 126.45 286.607 151.089C279.72 164.491 277.313 177.81 276.483 184.219C285.86 182.471 311.171 178.642 354.655 178.06C356.148 178.06 357.559 178.06 358.887 178.06Z" fill="#282828" />
<path d="M566.763 173.232C572.406 172.482 577.966 175.646 583.609 174.896C588.754 174.147 592.82 170.318 597.468 167.904C602.696 165.157 608.836 164.158 614.645 165.157C622.861 166.572 630.578 171.733 638.877 170.568C646.262 169.486 651.822 163.576 658.461 160.329C667.174 156.084 678.045 156.583 686.344 161.661C694.642 166.739 700.036 176.228 700.119 185.967C700.119 186.717 700.119 187.466 699.621 188.049C699.041 188.798 697.962 188.881 697.049 188.881C693.646 188.881 690.327 188.298 686.925 187.716C657.963 183.054 628.421 182.471 599.044 183.553C591.244 183.803 583.36 184.219 575.56 185.468C567.593 186.717 560.291 190.629 552.656 192.044C551.66 184.303 559.129 174.23 566.763 173.232Z" fill="#7ECDEC" />
<path d="M549.916 196.123C549.418 196.123 548.837 195.956 548.339 195.707C547.426 195.207 546.846 194.292 546.846 193.209C546.763 191.545 544.771 152.255 569.334 127.366C583.276 113.298 602.86 106.722 627.672 108.054C666.841 110.052 686.093 132.527 695.388 151.089C705.346 170.984 706.01 190.046 706.093 190.879C706.093 191.878 705.678 192.793 704.931 193.376C704.184 193.959 703.188 194.208 702.275 193.959C702.026 193.875 675.886 187.549 621.366 186.051C574.313 184.719 551.576 195.707 551.327 195.873C550.829 196.04 550.331 196.123 549.916 196.123ZM621.697 113.964C601.449 113.964 585.267 119.874 573.65 131.611C555.559 149.924 553.069 177.727 552.82 188.465C561.7 185.218 584.023 178.809 621.366 179.891C664.849 181.056 690.16 185.218 699.454 187.05C698.707 180.557 696.466 167.072 689.662 153.587C677.214 128.864 656.219 115.629 627.174 114.13C625.432 114.047 623.523 113.964 621.697 113.964Z" fill="#282828" />
</g>
<defs>

</defs>
</symbol><clipPath id="404_clip0_397_831">
<rect width="436" height="301" fill="white" transform="translate(270 6)" />
</clipPath><symbol viewBox="0 0 878 769" fill="none" id="banner">
<path opacity="0.75" d="M187.984 422.958C292.887 401.02 377.163 364.839 386.136 244.137C395.109 123.436 332.287 51.4416 285.818 29.3923C239.346 7.34306 181.254 36.3427 164.048 93.4602C139.272 175.713 114.917 204.323 71.1582 229.531C27.3999 254.738 -19.548 316.778 24.9596 379.707C60.0655 429.344 123.068 436.529 187.984 422.954V422.958Z" fill="#EB2E2E" />
<path opacity="0.75" d="M747.843 392.342C742.039 495.948 666.389 575.168 519.857 534.036C373.324 492.909 309.764 515.114 254.433 547.954C199.098 580.799 127.073 606.708 59.7898 558.16C-7.49807 509.612 -14.7228 421.358 21.8085 368.025C64.3847 305.864 145.461 295.002 204.478 290.715C262.868 286.475 317.559 266.952 331.88 142.608C346.197 18.2653 461.896 -20.1539 527.339 9.52318C609.968 46.9939 583.356 125.304 603.078 170.955C622.8 216.606 652.326 241.974 682.319 263.45C724.277 293.491 750.272 349.013 747.843 392.342Z" fill="#4B00EB" />
<path opacity="0.75" d="M548.94 445.655C638.751 437.359 707.746 447.463 781.04 490.839C854.334 534.212 908.341 615.759 858.949 703.25C809.352 791.104 677.401 791.16 611.445 701.951C535.587 599.352 450.109 578.124 374.516 625.962C327.509 655.708 292.767 605.839 314.764 573.132C354.681 513.781 444.308 455.313 548.94 445.65V445.655Z" fill="#FF6955" />
<path opacity="0.75" d="M525.609 102.544C507.307 175.415 536.802 240.897 570.698 272.743C603.082 303.169 646.786 326.328 704.051 325.996C750.836 325.724 770.625 279.541 746.996 250.404C709.964 204.748 699.698 178.719 695.114 135.308C689.543 82.5516 692.773 47.6699 652.973 23.2518C621.384 3.87638 546.073 21.0494 525.609 102.539V102.544Z" fill="#9664FF" />
</symbol><symbol viewBox="0 0 46 46" fill="none" id="cphone">
<rect width="46" height="46" rx="23" fill="#E9E4FF" />
<path d="M25.5621 15.5C26.783 15.7382 27.9051 16.3353 28.7847 17.2149C29.6643 18.0945 30.2614 19.2166 30.4996 20.4375M25.5621 10.5C28.0987 10.7818 30.4641 11.9177 32.2699 13.7213C34.0757 15.5248 35.2146 17.8888 35.4996 20.425M20.7833 25.3288C19.2813 23.8269 18.0953 22.1286 17.2253 20.3165C17.1505 20.1607 17.1131 20.0827 17.0843 19.9841C16.9822 19.6337 17.0556 19.2034 17.2681 18.9066C17.3279 18.8231 17.3993 18.7516 17.5422 18.6087C17.9792 18.1717 18.1977 17.9532 18.3406 17.7335C18.8793 16.9049 18.8793 15.8367 18.3406 15.008C18.1977 14.7883 17.9792 14.5698 17.5422 14.1328L17.2986 13.8892C16.6343 13.2249 16.3022 12.8928 15.9455 12.7123C15.236 12.3535 14.3982 12.3535 13.6887 12.7123C13.332 12.8928 12.9998 13.2249 12.3355 13.8892L12.1385 14.0863C11.4765 14.7483 11.1455 15.0793 10.8926 15.5293C10.6121 16.0287 10.4104 16.8043 10.4121 17.3771C10.4137 17.8933 10.5138 18.2461 10.714 18.9516C11.7903 22.7434 13.8208 26.3213 16.8058 29.3063C19.7908 32.2913 23.3688 34.3219 27.1605 35.3981C27.8661 35.5984 28.2188 35.6985 28.735 35.7C29.3078 35.7017 30.0834 35.5 30.5828 35.2195C31.0328 34.9667 31.3638 34.6357 32.0259 33.9736L32.2229 33.7766C32.8872 33.1123 33.2194 32.7801 33.3998 32.4234C33.7586 31.714 33.7586 30.8761 33.3998 30.1667C33.2194 29.81 32.8872 29.4778 32.2229 28.8135L31.9793 28.5699C31.5423 28.1329 31.3238 27.9144 31.1041 27.7715C30.2755 27.2328 29.2073 27.2328 28.3786 27.7715C28.1589 27.9144 27.9404 28.1329 27.5034 28.5699C27.3605 28.7128 27.2891 28.7842 27.2056 28.8441C26.9088 29.0566 26.4784 29.1299 26.128 29.0278C26.0294 28.999 25.9515 28.9616 25.7956 28.8868C23.9836 28.0168 22.2853 26.8308 20.7833 25.3288Z" stroke="#392B80" stroke-width="2" stroke-linecap="round" stroke-linejoin="round" />
</symbol><symbol viewBox="0 0 56 34" fill="none" id="dnt">
<path fill-rule="evenodd" clip-rule="evenodd" d="M3.64709 3.5447L6.40321 34L47.3895 30.8179L44.3354 0L3.64709 3.5447Z" fill="#FD0000" />
<path d="M8.23438 7.57129V17.2328H13.5841C16.8684 17.2057 18.5072 14.8064 18.5072 12.4037C18.5072 10.0011 16.8684 7.5984 13.5841 7.57129H8.23438ZM9.91716 9.0217H13.5164C15.6664 9.0217 16.7431 10.7059 16.7431 12.4037C16.7431 14.088 15.6664 15.7722 13.5164 15.7722H9.91716V9.0217ZM20.3423 17.2328H22.0251V9.75369L28.7834 17.2328H30.4797V7.57129H28.7834V15.0538L22.0251 7.57129H20.3423V17.2328ZM31.9153 7.57129V8.99459H36.4524V17.2328H38.1487V8.99459H42.6858V7.57129H31.9153Z" fill="#FEFEFE" stroke="#FEFEFE" stroke-width="1.12883" stroke-miterlimit="22.9256" />
<path fill-rule="evenodd" clip-rule="evenodd" d="M18.9789 21.1122L20.0015 29.4182L55.8784 29.5232L54.8457 18.7705L18.9789 21.1122Z" fill="#0C0AFF" />
<path d="M27.6527 27.3276V22.5358H26.9247V24.3692C26.7148 24.0201 26.2678 23.8134 25.7362 23.8134C24.6798 23.8134 23.962 24.5352 23.962 25.5892C23.962 26.6566 24.7002 27.4191 25.7362 27.4191C26.2814 27.4191 26.7351 27.1988 26.9247 26.843V27.3276H27.6527ZM26.9179 25.5892C26.9179 26.2805 26.4608 26.7617 25.7972 26.7617C25.1471 26.7617 24.6934 26.2873 24.6934 25.5892C24.6934 24.9114 25.1268 24.4742 25.7972 24.4742C26.4744 24.4742 26.9179 24.9114 26.9179 25.5892ZM29.1425 22.8002C29.1425 23.0814 29.3693 23.3017 29.6436 23.3017C29.9246 23.3017 30.1481 23.0747 30.1481 22.8002C30.1481 22.5257 29.9314 22.302 29.6436 22.302C29.3558 22.302 29.1425 22.5257 29.1425 22.8002ZM28.3366 27.3276H31.1266V26.7346H30.1074V23.9049H28.3366V24.4946H29.3964V26.7346H28.3366V27.3276ZM35.6095 23.8575H34.6242V24.4234C34.3872 24.0405 33.9335 23.8066 33.4155 23.8066C32.613 23.8066 32.0171 24.3827 32.0171 25.0741C32.0171 25.4163 32.1627 25.6976 32.3252 25.8298C32.0509 25.9179 31.8884 26.1178 31.8884 26.355C31.8884 26.5889 32.0171 26.8362 32.2101 26.9515C31.9561 27.0497 31.7225 27.2395 31.7225 27.6224C31.7225 28.185 32.2033 28.6933 33.4087 28.6933C34.4007 28.6933 35.3251 28.3849 35.3251 27.5614C35.3251 26.8905 34.7021 26.5753 33.4155 26.6092C32.7213 26.6295 32.4132 26.5279 32.4132 26.3211C32.4132 26.233 32.5046 26.1449 32.6265 26.1178C32.806 26.233 33.0938 26.3144 33.4155 26.3144C34.1874 26.3144 34.8172 25.8636 34.8172 25.0944C34.8172 24.8572 34.7563 24.6369 34.6445 24.4505H35.6095V23.8575ZM33.4155 25.7179C32.9821 25.7179 32.701 25.4739 32.701 25.0741C32.701 24.6776 32.9821 24.4031 33.4155 24.4031C33.8455 24.4031 34.1333 24.6776 34.1333 25.0741C34.1333 25.4739 33.8455 25.7179 33.4155 25.7179ZM32.6401 27.1175C32.8128 27.1853 33.0024 27.2056 33.4155 27.1988C34.14 27.1853 34.5971 27.2395 34.5971 27.5818C34.5971 27.9037 34.1739 28.124 33.4087 28.124C32.6943 28.124 32.3049 27.9308 32.3049 27.5682C32.3049 27.3479 32.4369 27.1921 32.6401 27.1175ZM37.0147 22.8002C37.0147 23.0814 37.2381 23.3017 37.5124 23.3017C37.7934 23.3017 38.0203 23.0747 38.0203 22.8002C38.0203 22.5257 37.8002 22.302 37.5124 22.302C37.2246 22.302 37.0147 22.5257 37.0147 22.8002ZM36.2054 27.3276H38.9988V26.7346H37.9796V23.9049H36.2054V24.4946H37.2686V26.7346H36.2054V27.3276ZM42.2899 26.0839C42.2899 26.5143 42.0562 26.7752 41.7414 26.7752C41.4062 26.7752 41.2436 26.4804 41.2436 26.006V24.5013H42.4761V23.9049H41.2436V22.7527H40.5055V23.4508C40.5055 23.7524 40.4716 23.9049 40.1906 23.9049H39.5608V24.5013H40.5055V26.006C40.5055 26.8769 40.9084 27.4123 41.7007 27.4123C42.4016 27.4123 42.9197 27.0057 42.9197 26.3482L42.2899 26.0839ZM44.9749 27.4191C45.5742 27.4191 46.1363 27.1717 46.2243 26.7888C46.2548 27.0328 46.3902 27.2192 46.59 27.3141C46.766 27.4056 46.9861 27.4191 47.196 27.3344V26.721C47.108 26.7414 47.0132 26.7481 46.9387 26.6837C46.8608 26.6227 46.8067 26.4872 46.8067 26.233V25.0198C46.8067 24.2743 46.2446 23.8066 45.2661 23.8066C44.4196 23.8066 43.7763 24.1591 43.695 24.6843L44.3519 24.8775C44.4061 24.6098 44.7277 24.4234 45.2254 24.4234C45.7062 24.4234 46.0821 24.5827 46.0821 24.8436C46.0821 25.0876 45.7401 25.2062 44.8902 25.2672C44.0844 25.3282 43.5901 25.7179 43.5901 26.3482C43.5901 26.9718 44.0776 27.4191 44.9749 27.4191ZM44.9749 26.8091C44.5686 26.8091 44.3248 26.6363 44.3248 26.355C44.3248 26.0907 44.555 25.9043 44.9309 25.8772C45.5674 25.8365 45.9602 25.762 46.0888 25.6095C46.0888 26.3347 45.625 26.8091 44.9749 26.8091ZM47.3213 23.1018H48.1272V26.0331C48.1272 26.8837 48.6147 27.4123 49.4002 27.4123C50.135 27.4123 50.6056 26.965 50.6124 26.2466L49.9894 25.9856C49.9826 26.4736 49.7558 26.7752 49.4002 26.7752C49.065 26.7752 48.8619 26.494 48.8619 26.0331V22.4647H47.3213V23.1018Z" fill="#FEFEFE" />
<path fill-rule="evenodd" clip-rule="evenodd" d="M13.4317 27.2866L13.5469 29.103L3.16233 29.7232L3.04382 28.0593L13.4317 27.2866Z" fill="#1C1B1B" />
<path fill-rule="evenodd" clip-rule="evenodd" d="M0 23.4944L0.372448 26.7273L16.8787 24.6838L16.5062 21.8745L0 23.4944Z" fill="#FECD05" />
</symbol><symbol viewBox="0 0 20 20" fill="none" id="icon-arrow">
<path d="M10.7608 5.45007C10.615 5.59593 10.5331 5.79372 10.5331 5.99996C10.5331 6.2062 10.615 6.404 10.7608 6.54985L13.3212 9.11108L5.22224 9.11652C5.01596 9.11652 4.81813 9.19846 4.67226 9.34433C4.5264 9.49019 4.44446 9.68802 4.44446 9.8943C4.44446 10.1006 4.5264 10.2984 4.67226 10.4443C4.81813 10.5901 5.01596 10.6721 5.22224 10.6721L13.322 10.6666L10.7608 13.2279C10.6865 13.2996 10.6273 13.3854 10.5865 13.4803C10.5457 13.5752 10.5243 13.6773 10.5234 13.7805C10.5225 13.8838 10.5422 13.9862 10.5813 14.0818C10.6204 14.1774 10.6781 14.2642 10.7512 14.3373C10.8242 14.4103 10.911 14.4681 11.0066 14.5072C11.1022 14.5463 11.2046 14.5659 11.3079 14.5651C11.4112 14.5642 11.5132 14.5427 11.6081 14.5019C11.703 14.4612 11.7888 14.4019 11.8606 14.3276L14.6497 11.5393C14.8664 11.3226 15.0383 11.0654 15.1556 10.7823C15.2729 10.4991 15.3332 10.1957 15.3332 9.88924C15.3332 9.58279 15.2729 9.27934 15.1556 8.99622C15.0383 8.7131 14.8664 8.45586 14.6497 8.23919L11.8606 5.45007C11.7147 5.30426 11.5169 5.22235 11.3107 5.22235C11.1044 5.22235 10.9066 5.30426 10.7608 5.45007Z" fill="#392B80" />
</symbol><symbol viewBox="0 0 27 27" id="icon-ball">
<path fill-rule="evenodd" clip-rule="evenodd" d="M2.04288 12.5H6.87594C6.79071 11.8808 6.62647 11.2737 6.38623 10.6937C6.01769 9.80393 5.47752 8.99551 4.79656 8.31455C4.46863 7.98662 4.11115 7.69135 3.72926 7.43217C2.79895 8.92702 2.20215 10.651 2.04288 12.5ZM4.93046 5.83087C5.38721 6.14767 5.81584 6.5054 6.21077 6.90034C7.07745 7.76702 7.76494 8.79592 8.23399 9.92829C8.57495 10.7514 8.79562 11.6175 8.89072 12.5H10.0278C10.5801 12.5 11.0278 12.9477 11.0278 13.5C11.0278 14.0523 10.5801 14.5 10.0278 14.5H8.89072C8.79562 15.3825 8.57495 16.2486 8.23399 17.0717C7.76494 18.2041 7.07745 19.233 6.21077 20.0997C5.81584 20.4946 5.38721 20.8523 4.93046 21.1691C7.03612 23.5204 10.0953 25 13.5 25C16.9047 25 19.9639 23.5204 22.0695 21.1691C21.6128 20.8523 21.1841 20.4946 20.7892 20.0997C19.9225 19.233 19.235 18.2041 18.766 17.0717C18.425 16.2486 18.2043 15.3825 18.1092 14.5H14.5V21.8333C14.5 22.3856 14.0523 22.8333 13.5 22.8333C12.9477 22.8333 12.5 22.3856 12.5 21.8333V2.04288C9.49918 2.30136 6.82776 3.71226 4.93046 5.83087ZM14.5 2.04288V12.5H18.1092C18.2043 11.6176 18.425 10.7514 18.766 9.92829C19.235 8.79592 19.9225 7.76702 20.7892 6.90034C21.1841 6.5054 21.6128 6.14767 22.0695 5.83086C20.1722 3.71226 17.5008 2.30136 14.5 2.04288ZM23.2707 7.43215C22.8888 7.69134 22.5313 7.98662 22.2034 8.31456C21.5224 8.99552 20.9823 9.80394 20.6137 10.6937C20.3735 11.2737 20.2093 11.8808 20.124 12.5H24.9571C24.7979 10.651 24.201 8.92701 23.2707 7.43215ZM24.9571 14.5H20.124C20.2093 15.1192 20.3735 15.7264 20.6137 16.3064C20.9823 17.1961 21.5224 18.0045 22.2034 18.6855C22.5313 19.0134 22.8888 19.3087 23.2707 19.5679C24.201 18.073 24.7979 16.349 24.9571 14.5ZM3.72926 19.5678C4.11115 19.3087 4.46863 19.0134 4.79656 18.6854C5.47752 18.0045 6.01769 17.1961 6.38623 16.3063C6.62647 15.7263 6.79071 15.1192 6.87594 14.5H2.04288C2.20215 16.349 2.79895 18.073 3.72926 19.5678ZM0 13.5C0 6.04416 6.04416 0 13.5 0C20.9558 0 27 6.04416 27 13.5C27 20.9558 20.9558 27 13.5 27C6.04416 27 0 20.9558 0 13.5Z" />
</symbol><symbol viewBox="0 0 40 40" fill="none" id="icon-box">
<path d="M20.465 2.60313C20.1665 2.48294 19.8335 2.48294 19.535 2.60313L4.615 8.59944L10.625 11.0135L26.01 4.83134L20.465 2.60313ZM29.375 6.18534L13.99 12.3675L20 14.7816L35.385 8.59944L29.375 6.18534ZM37.5 10.4559L21.25 16.9872V36.8878L37.5 30.3565V10.4559ZM18.75 36.8904V16.9847L2.5 10.4559V30.359L18.75 36.8904ZM18.6075 0.269421C19.5014 -0.0898069 20.4986 -0.0898069 21.3925 0.269421L39.215 7.43384C39.4467 7.52715 39.6453 7.68804 39.7852 7.89578C39.9251 8.10353 39.9999 8.3486 40 8.59944V30.359C39.9997 30.8609 39.8497 31.3513 39.5694 31.7668C39.2891 32.1823 38.8914 32.5039 38.4275 32.6902L20.465 39.9099C20.1665 40.03 19.8335 40.03 19.535 39.9099L1.575 32.6902C1.11063 32.5043 0.712356 32.1829 0.431605 31.7674C0.150854 31.3518 0.000515823 30.8612 0 30.359L0 8.59944C5.80999e-05 8.3486 0.0748594 8.10353 0.214768 7.89578C0.354676 7.68804 0.553282 7.52715 0.785 7.43384L18.6075 0.269421Z" fill="white" />
</symbol><symbol viewBox="0 0 9 14" id="icon-chevrone">
<path fill-rule="evenodd" clip-rule="evenodd" d="M0.864075 0.316408C1.24161 -0.0866834 1.87444 -0.107397 2.27753 0.270142L8.68361 6.27014C8.88547 6.45921 9.00001 6.72343 9.00001 7C9.00001 7.27658 8.88547 7.5408 8.68361 7.72986L2.27753 13.7299C1.87444 14.1074 1.24161 14.0867 0.864075 13.6836C0.486536 13.2805 0.50725 12.6477 0.910341 12.2701L6.53716 7L0.910341 1.72986C0.50725 1.35232 0.486536 0.719499 0.864075 0.316408Z" />
</symbol><symbol viewBox="0 0 40 40" fill="none" id="icon-phone">
<g clip-path="url(#icon-phone_clip0_328_406)">
<path d="M9.13477 3.31988C8.98719 3.13004 8.8009 2.97376 8.58828 2.86145C8.37566 2.74913 8.14157 2.68333 7.90157 2.66844C7.66157 2.65354 7.42114 2.68988 7.19626 2.77504C6.97139 2.86021 6.7672 2.99224 6.59727 3.16238L4.01227 5.74988C2.80477 6.95988 2.35977 8.67238 2.88727 10.1749C5.07662 16.3939 8.63801 22.0401 13.3073 26.6949C17.9621 31.3641 23.6083 34.9255 29.8273 37.1149C31.3298 37.6424 33.0423 37.1974 34.2523 35.9899L36.8373 33.4049C37.0074 33.235 37.1395 33.0308 37.2246 32.8059C37.3098 32.581 37.3461 32.3406 37.3312 32.1006C37.3163 31.8606 37.2505 31.6265 37.1382 31.4139C37.0259 31.2013 36.8696 31.015 36.6798 30.8674L30.9123 26.3824C30.7094 26.2251 30.4735 26.1159 30.2224 26.063C29.9712 26.0102 29.7113 26.0151 29.4623 26.0774L23.9873 27.4449C23.2565 27.6275 22.4908 27.6178 21.7649 27.4168C21.0389 27.2157 20.3774 26.83 19.8448 26.2974L13.7048 20.1549C13.1717 19.6225 12.7856 18.9611 12.5841 18.2351C12.3825 17.5092 12.3724 16.7434 12.5548 16.0124L13.9248 10.5374C13.987 10.2884 13.9919 10.0285 13.9391 9.77729C13.8863 9.52611 13.7771 9.29021 13.6198 9.08738L9.13477 3.31988ZM4.70977 1.27738C5.14726 0.839757 5.67284 0.500209 6.25162 0.281286C6.8304 0.0623632 7.44913 -0.0309251 8.06673 0.0076156C8.68432 0.0461563 9.28666 0.215644 9.83373 0.504825C10.3808 0.794005 10.8601 1.19626 11.2398 1.68488L15.7248 7.44988C16.5473 8.50738 16.8373 9.88488 16.5123 11.1849L15.1448 16.6599C15.0741 16.9435 15.0779 17.2405 15.1559 17.5222C15.2338 17.8038 15.3833 18.0605 15.5898 18.2674L21.7323 24.4099C21.9394 24.6168 22.1965 24.7665 22.4787 24.8445C22.7608 24.9225 23.0583 24.926 23.3423 24.8549L28.8148 23.4874C29.4563 23.327 30.1259 23.3145 30.773 23.4509C31.42 23.5874 32.0276 23.8691 32.5498 24.2749L38.3148 28.7599C40.3873 30.3724 40.5773 33.4349 38.7223 35.2874L36.1373 37.8724C34.2873 39.7224 31.5223 40.5349 28.9448 39.6274C22.3477 37.3062 16.358 33.5295 11.4198 28.5774C6.468 23.6399 2.69129 17.651 0.369774 11.0549C-0.535226 8.47988 0.277274 5.71238 2.12727 3.86238L4.71227 1.27738H4.70977ZM27.4998 1.24988C27.4998 0.918362 27.6315 0.60042 27.8659 0.365999C28.1003 0.131579 28.4183 -0.000117053 28.7498 -0.000117053H38.7498C39.0813 -0.000117053 39.3992 0.131579 39.6337 0.365999C39.8681 0.60042 39.9998 0.918362 39.9998 1.24988V11.2499C39.9998 11.5814 39.8681 11.8993 39.6337 12.1338C39.3992 12.3682 39.0813 12.4999 38.7498 12.4999C38.4183 12.4999 38.1003 12.3682 37.8659 12.1338C37.6315 11.8993 37.4998 11.5814 37.4998 11.2499V4.26738L27.1348 14.6349C26.9001 14.8696 26.5817 15.0015 26.2498 15.0015C25.9178 15.0015 25.5995 14.8696 25.3648 14.6349C25.1301 14.4002 24.9982 14.0818 24.9982 13.7499C24.9982 13.4179 25.1301 13.0996 25.3648 12.8649L35.7323 2.49988H28.7498C28.4183 2.49988 28.1003 2.36819 27.8659 2.13377C27.6315 1.89935 27.4998 1.5814 27.4998 1.24988Z" fill="white" />
</g>
<defs>

</defs>
</symbol><clipPath id="icon-phone_clip0_328_406">
<rect width="40" height="40" fill="white" />
</clipPath><symbol viewBox="0 0 21 22" fill="none" id="icon-search">
<path d="M20.7436 20.0063L15.5207 14.7834C16.944 13.0427 17.6438 10.8215 17.4754 8.5793C17.3069 6.33708 16.2831 4.2454 14.6156 2.73689C12.9482 1.22838 10.7648 0.418462 8.51693 0.474665C6.2691 0.530868 4.12886 1.44889 2.5389 3.03884C0.94895 4.6288 0.0309287 6.76904 -0.0252741 9.01687C-0.0814769 11.2647 0.728439 13.4481 2.23695 15.1156C3.74546 16.783 5.83714 17.8068 8.07936 17.9753C10.3216 18.1438 12.5428 17.444 14.2835 16.0207L19.5064 21.2436C19.6714 21.4029 19.8924 21.4911 20.1218 21.4891C20.3513 21.4872 20.5707 21.3951 20.733 21.2329C20.8952 21.0707 20.9872 20.8512 20.9892 20.6218C20.9912 20.3924 20.903 20.1713 20.7436 20.0063ZM8.74999 16.2499C7.36552 16.2499 6.01214 15.8394 4.861 15.0702C3.70986 14.301 2.81265 13.2078 2.28284 11.9287C1.75302 10.6496 1.6144 9.24217 1.88449 7.8843C2.15459 6.52643 2.82128 5.27915 3.80024 4.30018C4.77921 3.32122 6.02649 2.65453 7.38436 2.38443C8.74223 2.11434 10.1497 2.25296 11.4288 2.78277C12.7079 3.31259 13.8011 4.20979 14.5703 5.36094C15.3394 6.51208 15.75 7.86546 15.75 9.24993C15.7479 11.1058 15.0097 12.8851 13.6974 14.1974C12.3851 15.5097 10.6059 16.2478 8.74999 16.2499Z" fill="#392B80" />
</symbol><symbol viewBox="0 0 46 46" fill="none" id="map">
<rect width="46" height="46" rx="23" fill="#E9E4FF" />
<path d="M14.25 25.8579C11.9358 26.8788 10.5 28.3015 10.5 29.875C10.5 32.9816 16.0964 35.5 23 35.5C29.9036 35.5 35.5 32.9816 35.5 29.875C35.5 28.3015 34.0642 26.8788 31.75 25.8579M30.5 18C30.5 23.0796 24.875 25.5 23 29.25C21.125 25.5 15.5 23.0796 15.5 18C15.5 13.8579 18.8579 10.5 23 10.5C27.1421 10.5 30.5 13.8579 30.5 18ZM24.25 18C24.25 18.6904 23.6904 19.25 23 19.25C22.3096 19.25 21.75 18.6904 21.75 18C21.75 17.3096 22.3096 16.75 23 16.75C23.6904 16.75 24.25 17.3096 24.25 18Z" stroke="#392B80" stroke-width="2" stroke-linecap="round" stroke-linejoin="round" />
</symbol><symbol viewBox="0 0 47 48" fill="none" id="phone-white">
<rect y="0.5" width="47" height="47" rx="8" fill="#473BF0" fill-opacity="0.1" />
<g clip-path="url(#phone-white_clip0_328_472)">
<path d="M16.9376 13.6579C16.8417 13.5345 16.7206 13.4329 16.5824 13.3599C16.4442 13.2869 16.292 13.2441 16.136 13.2344C15.98 13.2247 15.8237 13.2484 15.6776 13.3037C15.5314 13.3591 15.3987 13.4449 15.2882 13.5555L13.608 15.2374C12.8231 16.0239 12.5338 17.137 12.8767 18.1136C14.2998 22.1559 16.6147 25.826 19.6497 28.8516C22.6754 31.8866 26.3454 34.2015 30.3877 35.6246C31.3644 35.9675 32.4775 35.6782 33.264 34.8934L34.9442 33.2131C35.0548 33.1027 35.1406 32.9699 35.196 32.8238C35.2514 32.6776 35.275 32.5213 35.2653 32.3653C35.2556 32.2093 35.2128 32.0572 35.1398 31.919C35.0668 31.7808 34.9653 31.6597 34.8419 31.5637L31.093 28.6485C30.9611 28.5462 30.8078 28.4753 30.6445 28.4409C30.4813 28.4066 30.3123 28.4098 30.1505 28.4502L26.5917 29.3391C26.1167 29.4578 25.619 29.4515 25.1472 29.3208C24.6753 29.1901 24.2453 28.9395 23.8991 28.5932L19.9081 24.6006C19.5616 24.2546 19.3106 23.8247 19.1796 23.3528C19.0486 22.8809 19.0421 22.3832 19.1606 21.908L20.0511 18.3492C20.0916 18.1874 20.0948 18.0185 20.0604 17.8552C20.0261 17.6919 19.9551 17.5386 19.8529 17.4067L16.9376 13.6579ZM14.0613 12.3302C14.3457 12.0458 14.6873 11.8251 15.0636 11.6828C15.4398 11.5405 15.8419 11.4798 16.2434 11.5049C16.6448 11.5299 17.0363 11.6401 17.3919 11.8281C17.7475 12.016 18.0591 12.2775 18.3059 12.5951L21.2211 16.3424C21.7557 17.0297 21.9442 17.9251 21.733 18.7701L20.8441 22.3289C20.7981 22.5132 20.8006 22.7063 20.8513 22.8893C20.902 23.0724 20.9991 23.2393 21.1334 23.3737L25.126 27.3664C25.2606 27.5008 25.4277 27.5982 25.6111 27.6489C25.7945 27.6995 25.9879 27.7019 26.1725 27.6556L29.7296 26.7667C30.1466 26.6625 30.5818 26.6544 31.0024 26.7431C31.423 26.8317 31.8179 27.0149 32.1574 27.2786L35.9046 30.1939C37.2517 31.242 37.3752 33.2326 36.1695 34.4367L34.4892 36.117C33.2867 37.3195 31.4895 37.8476 29.8141 37.2577C25.526 35.749 21.6327 33.2941 18.4229 30.0752C15.2042 26.8659 12.7493 22.9731 11.2403 18.6856C10.6521 17.0119 11.1802 15.213 12.3827 14.0105L14.063 12.3302H14.0613ZM28.8749 12.3124C28.8749 12.0969 28.9605 11.8902 29.1128 11.7378C29.2652 11.5855 29.4719 11.4999 29.6874 11.4999H36.1874C36.4028 11.4999 36.6095 11.5855 36.7619 11.7378C36.9142 11.8902 36.9999 12.0969 36.9999 12.3124V18.8124C36.9999 19.0279 36.9142 19.2345 36.7619 19.3869C36.6095 19.5393 36.4028 19.6249 36.1874 19.6249C35.9719 19.6249 35.7652 19.5393 35.6128 19.3869C35.4605 19.2345 35.3749 19.0279 35.3749 18.8124V14.2737L28.6376 21.0126C28.485 21.1652 28.2781 21.2509 28.0624 21.2509C27.8466 21.2509 27.6397 21.1652 27.4871 21.0126C27.3345 20.8601 27.2488 20.6531 27.2488 20.4374C27.2488 20.2216 27.3345 20.0147 27.4871 19.8621L34.226 13.1249H29.6874C29.4719 13.1249 29.2652 13.0393 29.1128 12.8869C28.9605 12.7345 28.8749 12.5279 28.8749 12.3124Z" fill="#473BF0" />
</g>
<defs>

</defs>
</symbol><clipPath id="phone-white_clip0_328_472">
<rect width="26" height="26" fill="white" transform="translate(11 11.5)" />
</clipPath></defs><use id="404-usage" xlink:href="#404" class="sprite-symbol-usage" /><use id="banner-usage" xlink:href="#banner" class="sprite-symbol-usage" /><use id="cphone-usage" xlink:href="#cphone" class="sprite-symbol-usage" /><use id="dnt-usage" xlink:href="#dnt" class="sprite-symbol-usage" /><use id="icon-arrow-usage" xlink:href="#icon-arrow" class="sprite-symbol-usage" /><use id="icon-ball-usage" xlink:href="#icon-ball" class="sprite-symbol-usage" /><use id="icon-box-usage" xlink:href="#icon-box" class="sprite-symbol-usage" /><use id="icon-chevrone-usage" xlink:href="#icon-chevrone" class="sprite-symbol-usage" /><use id="icon-phone-usage" xlink:href="#icon-phone" class="sprite-symbol-usage" /><use id="icon-search-usage" xlink:href="#icon-search" class="sprite-symbol-usage" /><use id="map-usage" xlink:href="#map" class="sprite-symbol-usage" /><use id="phone-white-usage" xlink:href="#phone-white" class="sprite-symbol-usage" /></svg>