<svg xmlns="http://www.w3.org/2000/svg" xmlns:xlink="http://www.w3.org/1999/xlink"><defs><style>
    .sprite-symbol-usage {display: none;}
    .sprite-symbol-usage:target {display: inline;}
  </style><symbol viewBox="0 0 975 415" fill="none" id="404">
<path d="M312.973 331.077H268.503V409.125H160.682V331.077H0V251.35L167.814 5.87451H268.503V249.671H312.973V331.077ZM160.682 249.671V202.674C160.682 193.862 161.102 182.113 161.521 167.007C162.36 151.901 162.78 144.348 163.199 143.508H160.262C153.969 157.775 146.837 170.783 138.866 183.372L94.3954 249.671H160.682Z" fill="white" />
<path d="M632.659 208.129C632.659 279.464 620.493 331.916 596.999 365.066C573.085 398.215 536.586 415 487.081 415C438.834 415 402.754 397.796 378.002 362.968C353.668 328.14 341.502 276.527 341.502 208.129C341.502 136.375 353.249 83.9231 377.582 50.3539C401.495 16.7846 437.995 0 487.5 0C535.327 0 571.827 17.6239 596.16 52.452C620.493 87.2801 632.659 138.893 632.659 208.129ZM449.742 208.129C449.742 253.868 452.679 285.339 458.133 302.123C464.006 319.328 473.236 327.72 486.661 327.72C500.086 327.72 509.736 318.908 515.609 301.284C521.063 283.66 524 252.609 524 208.129C524 163.231 521.063 132.179 515.609 114.135C509.736 96.092 500.506 87.2801 487.081 87.2801C473.656 87.2801 464.006 96.092 458.552 113.296C452.679 130.501 449.742 161.972 449.742 208.129Z" fill="white" />
<path d="M975.001 331.077H930.53V409.125H822.709V331.077H662.027V251.35L829.841 5.87451H930.53V249.671H975.001V331.077ZM823.129 249.671V202.674C823.129 193.862 823.548 182.113 823.968 167.007C824.807 151.901 825.227 144.348 825.646 143.508H822.709C816.416 157.775 809.284 170.783 801.313 183.372L756.423 250.091H823.129V249.671Z" fill="white" />
<g clip-path="url(#404_clip0_397_831)">
<path d="M702.941 190.962C702.941 190.962 700.534 114.88 627.425 111.134C544.689 106.888 549.834 193.126 549.834 193.126C549.834 193.126 572.738 181.639 621.367 183.054C677.049 184.469 702.941 190.962 702.941 190.962Z" fill="white" />
<path d="M687.339 41.4606C683.605 25.5616 664.768 40.7947 632.155 31.5549C605.019 23.8135 596.139 3.41944 587.011 10.4949C577.883 17.5704 590.58 40.7947 629.582 54.0301C658.627 63.9358 691.655 60.0234 687.339 41.4606Z" fill="#282828" />
<path d="M290.258 46.705C292.582 30.5562 312.747 44.1245 344.364 31.9713C370.753 21.8991 377.807 0.839078 387.516 7.08216C397.225 13.4085 386.52 37.6317 348.845 54.1967C320.796 66.5996 287.52 65.5175 290.258 46.705Z" fill="#282828" />
<path d="M273.08 188.132C273.08 188.132 276.565 112.049 349.592 109.302C432.327 106.139 426.103 192.294 426.103 192.294C426.103 192.294 403.366 180.557 354.737 181.223C299.054 181.972 273.08 188.132 273.08 188.132Z" fill="white" />
<path d="M631.822 110.468C673.314 125.618 675.555 173.481 675.389 185.884C692.899 189.131 701.28 193.459 701.28 193.459C701.28 193.459 707.172 112.299 631.822 110.468Z" fill="#EFEFEF" />
<path d="M356.562 109.219C398.055 124.369 400.295 172.233 400.129 184.635C417.639 187.882 426.02 192.21 426.02 192.21C426.02 192.21 431.995 111.05 356.562 109.219Z" fill="#EFEFEF" />
<path d="M389.675 173.897C389.675 151.672 371.75 133.692 349.593 133.692C327.436 133.692 309.512 151.672 309.512 173.897C309.512 177.144 309.927 180.39 310.674 183.387C322.457 182.471 337.063 181.639 354.738 181.389C367.933 181.223 379.136 181.972 388.596 183.054C389.343 180.224 389.675 177.144 389.675 173.897Z" fill="#282828" />
<path d="M340.465 171.567C347.615 171.567 353.411 165.753 353.411 158.581C353.411 151.409 347.615 145.595 340.465 145.595C333.315 145.595 327.52 151.409 327.52 158.581C327.52 165.753 333.315 171.567 340.465 171.567Z" fill="white" />
<path d="M586.514 175.229C586.846 153.004 605.019 135.273 627.093 135.606C649.25 135.939 666.925 154.169 666.594 176.311C666.511 179.558 666.096 182.804 665.349 185.801C653.565 184.719 638.96 183.72 621.367 183.22C608.173 182.887 596.97 183.47 587.509 184.469C586.846 181.472 586.514 178.392 586.514 175.229Z" fill="#282828" />
<path d="M648.871 160.698C648.966 153.527 643.248 147.636 636.099 147.541C628.95 147.446 623.078 153.182 622.983 160.353C622.888 167.524 628.606 173.414 635.755 173.51C642.904 173.605 648.776 167.869 648.871 160.698Z" fill="white" />
<path d="M619.54 291.85C618.212 291.85 616.884 291.184 616.138 290.019C616.055 289.935 607.922 278.115 590.081 266.545C573.733 255.89 545.518 243.237 504.358 243.237C504.192 243.237 504.026 243.237 503.86 243.237C440.875 243.404 393.988 289.02 393.49 289.519C391.831 291.101 389.258 291.101 387.599 289.519C386.022 287.854 386.022 285.274 387.599 283.609C388.096 283.11 400.129 271.289 420.46 259.303C439.298 248.232 469.006 234.996 503.777 234.913C503.943 234.913 504.109 234.913 504.358 234.913C547.841 234.913 577.633 248.481 594.977 259.802C614.063 272.288 622.61 284.858 623.025 285.357C624.27 287.272 623.855 289.852 621.947 291.101C621.117 291.6 620.287 291.85 619.54 291.85Z" fill="#282828" />
<path d="M376.148 269.791C369.592 280.363 368.43 294.014 373.16 305.502C373.575 306.501 374.571 307.25 375.733 306.917C376.729 306.667 377.642 305.418 377.144 304.336C372.828 293.765 373.741 281.528 379.716 271.872C381.127 269.625 377.559 267.46 376.148 269.791Z" fill="#282828" />
<path d="M624.271 273.038C632.155 280.696 635.142 292.766 631.906 303.254C631.076 305.835 635.142 306.917 635.889 304.336C639.623 292.433 636.138 278.781 627.176 270.041C625.267 268.21 622.28 271.206 624.271 273.038Z" fill="#282828" />
<path d="M411.83 169.985C410.751 168.986 409.673 168.07 408.345 167.571C406.27 166.822 404.03 167.321 401.872 166.988C397.059 166.073 394.238 161.078 390.005 158.498C383.865 154.752 375.483 156.999 370.421 162.16C367.351 165.323 364.529 169.819 360.131 169.902C358.056 169.985 356.065 168.986 353.99 168.653C348.679 167.737 343.7 171.067 338.472 172.316C333.493 173.564 328.016 172.898 323.452 170.568C317.892 167.654 312.581 162.244 306.606 163.992C300.88 165.74 298.723 173.231 293.08 175.229C289.096 176.728 284.283 174.896 280.466 176.728C276.566 178.642 275.155 183.387 274.242 187.715L349.675 181.389L423.199 189.463C423.282 181.639 417.473 175.229 411.83 169.985Z" fill="#7ECDEC" />
<path d="M426.104 195.291C425.606 195.291 425.108 195.207 424.693 194.958C424.444 194.874 401.873 183.554 354.821 184.219C300.217 184.969 274.077 190.962 273.745 191.045C272.832 191.295 271.836 191.045 271.089 190.379C270.342 189.797 269.927 188.798 270.01 187.882C270.01 187.05 271.006 167.987 281.213 148.259C290.674 129.863 310.258 107.638 349.51 106.139C374.239 105.224 393.823 111.966 407.516 126.284C431.83 151.506 429.258 190.796 429.175 192.46C429.092 193.459 428.511 194.375 427.598 194.958C427.183 195.207 426.602 195.291 426.104 195.291ZM358.887 178.06C393.74 178.06 414.652 184.386 423.117 187.632C423.034 176.977 420.959 149.092 403.034 130.529C390.504 117.543 372.579 111.467 349.675 112.299C320.548 113.381 299.304 126.45 286.607 151.089C279.72 164.491 277.313 177.81 276.483 184.219C285.86 182.471 311.171 178.642 354.655 178.06C356.148 178.06 357.559 178.06 358.887 178.06Z" fill="#282828" />
<path d="M566.763 173.232C572.406 172.482 577.966 175.646 583.609 174.896C588.754 174.147 592.82 170.318 597.468 167.904C602.696 165.157 608.836 164.158 614.645 165.157C622.861 166.572 630.578 171.733 638.877 170.568C646.262 169.486 651.822 163.576 658.461 160.329C667.174 156.084 678.045 156.583 686.344 161.661C694.642 166.739 700.036 176.228 700.119 185.967C700.119 186.717 700.119 187.466 699.621 188.049C699.041 188.798 697.962 188.881 697.049 188.881C693.646 188.881 690.327 188.298 686.925 187.716C657.963 183.054 628.421 182.471 599.044 183.553C591.244 183.803 583.36 184.219 575.56 185.468C567.593 186.717 560.291 190.629 552.656 192.044C551.66 184.303 559.129 174.23 566.763 173.232Z" fill="#7ECDEC" />
<path d="M549.916 196.123C549.418 196.123 548.837 195.956 548.339 195.707C547.426 195.207 546.846 194.292 546.846 193.209C546.763 191.545 544.771 152.255 569.334 127.366C583.276 113.298 602.86 106.722 627.672 108.054C666.841 110.052 686.093 132.527 695.388 151.089C705.346 170.984 706.01 190.046 706.093 190.879C706.093 191.878 705.678 192.793 704.931 193.376C704.184 193.959 703.188 194.208 702.275 193.959C702.026 193.875 675.886 187.549 621.366 186.051C574.313 184.719 551.576 195.707 551.327 195.873C550.829 196.04 550.331 196.123 549.916 196.123ZM621.697 113.964C601.449 113.964 585.267 119.874 573.65 131.611C555.559 149.924 553.069 177.727 552.82 188.465C561.7 185.218 584.023 178.809 621.366 179.891C664.849 181.056 690.16 185.218 699.454 187.05C698.707 180.557 696.466 167.072 689.662 153.587C677.214 128.864 656.219 115.629 627.174 114.13C625.432 114.047 623.523 113.964 621.697 113.964Z" fill="#282828" />
</g>
<defs>

</defs>
</symbol><clipPath id="404_clip0_397_831">
<rect width="436" height="301" fill="white" transform="translate(270 6)" />
</clipPath><symbol viewBox="0 0 878 769" fill="none" id="banner">
<path opacity="0.75" d="M187.984 422.958C292.887 401.02 377.163 364.839 386.136 244.137C395.109 123.436 332.287 51.4416 285.818 29.3923C239.346 7.34306 181.254 36.3427 164.048 93.4602C139.272 175.713 114.917 204.323 71.1582 229.531C27.3999 254.738 -19.548 316.778 24.9596 379.707C60.0655 429.344 123.068 436.529 187.984 422.954V422.958Z" fill="#EB2E2E" />
<path opacity="0.75" d="M747.843 392.342C742.039 495.948 666.389 575.168 519.857 534.036C373.324 492.909 309.764 515.114 254.433 547.954C199.098 580.799 127.073 606.708 59.7898 558.16C-7.49807 509.612 -14.7228 421.358 21.8085 368.025C64.3847 305.864 145.461 295.002 204.478 290.715C262.868 286.475 317.559 266.952 331.88 142.608C346.197 18.2653 461.896 -20.1539 527.339 9.52318C609.968 46.9939 583.356 125.304 603.078 170.955C622.8 216.606 652.326 241.974 682.319 263.45C724.277 293.491 750.272 349.013 747.843 392.342Z" fill="#4B00EB" />
<path opacity="0.75" d="M548.94 445.655C638.751 437.359 707.746 447.463 781.04 490.839C854.334 534.212 908.341 615.759 858.949 703.25C809.352 791.104 677.401 791.16 611.445 701.951C535.587 599.352 450.109 578.124 374.516 625.962C327.509 655.708 292.767 605.839 314.764 573.132C354.681 513.781 444.308 455.313 548.94 445.65V445.655Z" fill="#FF6955" />
<path opacity="0.75" d="M525.609 102.544C507.307 175.415 536.802 240.897 570.698 272.743C603.082 303.169 646.786 326.328 704.051 325.996C750.836 325.724 770.625 279.541 746.996 250.404C709.964 204.748 699.698 178.719 695.114 135.308C689.543 82.5516 692.773 47.6699 652.973 23.2518C621.384 3.87638 546.073 21.0494 525.609 102.539V102.544Z" fill="#9664FF" />
</symbol><symbol viewBox="0 0 27 27" id="icon-ball">
<path fill-rule="evenodd" clip-rule="evenodd" d="M2.04288 12.5H6.87594C6.79071 11.8808 6.62647 11.2737 6.38623 10.6937C6.01769 9.80393 5.47752 8.99551 4.79656 8.31455C4.46863 7.98662 4.11115 7.69135 3.72926 7.43217C2.79895 8.92702 2.20215 10.651 2.04288 12.5ZM4.93046 5.83087C5.38721 6.14767 5.81584 6.5054 6.21077 6.90034C7.07745 7.76702 7.76494 8.79592 8.23399 9.92829C8.57495 10.7514 8.79562 11.6175 8.89072 12.5H10.0278C10.5801 12.5 11.0278 12.9477 11.0278 13.5C11.0278 14.0523 10.5801 14.5 10.0278 14.5H8.89072C8.79562 15.3825 8.57495 16.2486 8.23399 17.0717C7.76494 18.2041 7.07745 19.233 6.21077 20.0997C5.81584 20.4946 5.38721 20.8523 4.93046 21.1691C7.03612 23.5204 10.0953 25 13.5 25C16.9047 25 19.9639 23.5204 22.0695 21.1691C21.6128 20.8523 21.1841 20.4946 20.7892 20.0997C19.9225 19.233 19.235 18.2041 18.766 17.0717C18.425 16.2486 18.2043 15.3825 18.1092 14.5H14.5V21.8333C14.5 22.3856 14.0523 22.8333 13.5 22.8333C12.9477 22.8333 12.5 22.3856 12.5 21.8333V2.04288C9.49918 2.30136 6.82776 3.71226 4.93046 5.83087ZM14.5 2.04288V12.5H18.1092C18.2043 11.6176 18.425 10.7514 18.766 9.92829C19.235 8.79592 19.9225 7.76702 20.7892 6.90034C21.1841 6.5054 21.6128 6.14767 22.0695 5.83086C20.1722 3.71226 17.5008 2.30136 14.5 2.04288ZM23.2707 7.43215C22.8888 7.69134 22.5313 7.98662 22.2034 8.31456C21.5224 8.99552 20.9823 9.80394 20.6137 10.6937C20.3735 11.2737 20.2093 11.8808 20.124 12.5H24.9571C24.7979 10.651 24.201 8.92701 23.2707 7.43215ZM24.9571 14.5H20.124C20.2093 15.1192 20.3735 15.7264 20.6137 16.3064C20.9823 17.1961 21.5224 18.0045 22.2034 18.6855C22.5313 19.0134 22.8888 19.3087 23.2707 19.5679C24.201 18.073 24.7979 16.349 24.9571 14.5ZM3.72926 19.5678C4.11115 19.3087 4.46863 19.0134 4.79656 18.6854C5.47752 18.0045 6.01769 17.1961 6.38623 16.3063C6.62647 15.7263 6.79071 15.1192 6.87594 14.5H2.04288C2.20215 16.349 2.79895 18.073 3.72926 19.5678ZM0 13.5C0 6.04416 6.04416 0 13.5 0C20.9558 0 27 6.04416 27 13.5C27 20.9558 20.9558 27 13.5 27C6.04416 27 0 20.9558 0 13.5Z" />
</symbol></defs><use id="404-usage" xlink:href="#404" class="sprite-symbol-usage" /><use id="banner-usage" xlink:href="#banner" class="sprite-symbol-usage" /><use id="icon-ball-usage" xlink:href="#icon-ball" class="sprite-symbol-usage" /></svg>